<svg width="22" height="20" viewBox="0 0 22 20" fill="none" xmlns="http://www.w3.org/2000/svg">
<path d="M9.92513 0.85958C10.225 -0.0606967 11.5269 -0.0606959 11.8267 0.859581L13.5778 6.23398C13.7119 6.64561 14.0957 6.92418 14.5286 6.92418H20.1894C21.1588 6.92418 21.5611 8.16521 20.7761 8.73398L16.2012 12.0486C15.8498 12.3033 15.7027 12.7555 15.8371 13.1682L17.5857 18.5349C17.8857 19.4557 16.8325 20.2227 16.0482 19.6544L11.4626 16.3321C11.1126 16.0784 10.6392 16.0784 10.2892 16.3321L5.70366 19.6544C4.91941 20.2227 3.86612 19.4557 4.16614 18.5348L5.91471 13.1682C6.04917 12.7555 5.90209 12.3033 5.55063 12.0486L0.975753 8.73398C0.190746 8.16521 0.593077 6.92418 1.56247 6.92418H7.22323C7.65615 6.92418 8.03991 6.64561 8.17403 6.23398L9.92513 0.85958Z" fill="#070707"/>
</svg>
