<?xml version="1.0" standalone="no"?>
<!DOCTYPE svg PUBLIC "-//W3C//DTD SVG 20010904//EN"
 "http://www.w3.org/TR/2001/REC-SVG-20010904/DTD/svg10.dtd">
<svg version="1.0" xmlns="http://www.w3.org/2000/svg"
 width="1286.000000pt" height="1286.000000pt" viewBox="0 0 1286.000000 1286.000000"
 preserveAspectRatio="xMidYMid meet">
<metadata>
Created by potrace 1.14, written by Peter Selinger 2001-2017
</metadata>
<g transform="translate(0.000000,1286.000000) scale(0.100000,-0.100000)"
fill="#000000" stroke="none">
<path d="M3634 11634 c3 -9 6 -22 6 -29 0 -8 9 -19 19 -25 19 -10 19 -9 3 30
-16 37 -42 59 -28 24z"/>
<path d="M3638 11528 c-27 -16 -48 -37 -48 -46 0 -10 -7 -26 -15 -36 -8 -11
-15 -31 -15 -45 l1 -26 29 33 c17 18 30 43 30 57 0 18 11 32 40 50 22 14 44
25 50 25 5 0 10 5 10 10 0 18 -34 9 -82 -22z"/>
<path d="M3780 11525 c0 -18 55 -44 71 -34 17 10 7 20 -36 35 -28 9 -35 9 -35
-1z"/>
<path d="M4123 11453 c-12 -8 -38 -15 -58 -16 -28 -1 -35 -5 -35 -21 0 -30 38
-45 70 -29 31 16 94 17 121 2 40 -21 41 -2 2 39 -42 45 -65 50 -100 25z"/>
<path d="M4342 11288 c-14 -38 -2 -57 22 -33 19 20 20 26 3 48 -11 16 -13 15
-25 -15z"/>
<path d="M3736 11285 c-8 -31 18 -59 44 -48 8 3 23 5 32 5 10 0 20 4 24 9 3 5
26 7 53 3 31 -4 51 -2 55 5 8 13 -22 26 -79 34 -22 3 -59 9 -81 13 -39 6 -42
5 -48 -21z"/>
<path d="M3997 11239 c4 -13 8 -18 11 -10 2 7 -1 18 -6 23 -8 8 -9 4 -5 -13z"/>
<path d="M3013 11157 c4 -10 7 -24 7 -29 0 -6 3 -9 6 -5 3 3 14 -3 25 -14 10
-10 26 -19 34 -19 14 0 -16 36 -60 70 -17 14 -18 13 -12 -3z"/>
<path d="M4197 11163 c-4 -3 -20 -6 -37 -5 -22 0 -30 -4 -30 -17 0 -10 -12
-27 -27 -37 -46 -32 -95 -83 -89 -93 10 -16 -19 -19 -45 -5 -17 9 -19 13 -8
14 14 0 29 19 29 36 0 13 -31 1 -40 -16 -14 -26 -48 -26 -76 1 -22 21 -64 20
-64 -2 0 -13 62 -68 78 -69 6 0 12 -4 12 -8 0 -5 18 -16 40 -25 31 -12 43 -13
53 -4 12 12 67 20 67 10 0 -2 -9 -16 -20 -30 -15 -20 -19 -34 -14 -60 4 -21 2
-33 -5 -33 -6 0 -11 8 -12 18 0 9 -3 12 -5 6 -3 -7 4 -28 15 -48 11 -20 18
-43 15 -51 -14 -35 41 7 60 46 10 22 29 53 43 70 l25 29 30 -25 c16 -14 34
-25 39 -25 5 0 9 -7 9 -15 0 -8 -5 -15 -11 -15 -8 0 -7 -5 1 -15 7 -9 15 -14
17 -11 3 2 20 -12 38 -32 34 -37 60 -38 37 -1 -7 11 -10 24 -7 29 4 6 1 10 -5
10 -6 0 -10 10 -8 23 3 19 8 22 47 20 l44 -2 -27 27 c-19 21 -23 31 -15 39 9
9 6 20 -10 42 -28 39 -55 54 -111 61 -51 6 -65 30 -28 47 113 53 178 96 165
109 -4 4 -23 0 -42 -9 -34 -16 -36 -16 -47 3 -12 19 -66 28 -81 13z"/>
<path d="M4390 11160 c0 -5 5 -10 10 -10 6 0 10 5 10 10 0 6 -4 10 -10 10 -5
0 -10 -4 -10 -10z"/>
<path d="M3030 11103 c0 -6 6 -18 13 -25 6 -7 19 -26 27 -41 8 -16 22 -33 32
-38 12 -7 6 8 -18 43 -48 68 -54 75 -54 61z"/>
<path d="M3577 11073 c-4 -3 -7 -11 -7 -17 0 -6 5 -5 12 2 6 6 9 14 7 17 -3 3
-9 2 -12 -2z"/>
<path d="M5540 11048 c-12 -4 -46 -30 -74 -56 -38 -34 -67 -51 -105 -61 -28
-7 -65 -24 -80 -37 -16 -13 -40 -28 -54 -33 -33 -13 -72 -80 -98 -167 -56
-186 -54 -177 -40 -261 9 -52 19 -82 31 -90 23 -16 35 -64 19 -74 -20 -12 -29
-1 -29 39 0 34 -1 35 -15 16 -13 -16 -16 -17 -25 -4 -30 46 -29 46 -40 30 -6
-8 -13 -26 -16 -40 -11 -46 -13 -49 -34 -43 -14 4 -18 8 -10 13 14 8 3 80 -12
80 -5 0 -7 -9 -3 -19 3 -11 1 -22 -5 -26 -6 -3 -8 -11 -5 -16 4 -5 0 -9 -9 -9
-8 0 -16 -6 -18 -12 -7 -21 -128 117 -128 145 0 16 -40 61 -76 85 -14 9 -16
14 -6 18 10 5 10 9 1 20 -17 21 -29 17 -26 -8 3 -33 -27 -34 -68 -3 -31 24
-35 33 -35 74 -1 52 -27 89 -95 131 -22 13 -48 33 -58 43 -27 27 -33 13 -14
-30 18 -44 29 -113 18 -113 -4 0 -18 -21 -31 -46 -31 -59 -39 -62 -53 -25 -12
33 -27 41 -27 16 0 -8 -4 -15 -10 -15 -5 0 -10 -12 -10 -27 0 -39 -43 -90 -82
-95 -46 -7 -59 13 -41 65 12 35 12 42 -3 58 -9 11 -23 19 -30 19 -11 0 -34 49
-34 71 0 5 11 9 25 9 18 0 23 4 19 15 -4 8 -15 15 -25 15 -10 0 -19 -7 -19
-15 0 -8 -4 -15 -9 -15 -5 0 -14 -14 -20 -31 -13 -37 -14 -49 -3 -31 6 9 11 6
19 -10 5 -13 20 -43 32 -67 16 -34 18 -42 6 -37 -11 4 -15 -2 -15 -24 0 -43
-33 -41 -45 3 -9 28 -16 33 -60 43 -48 10 -50 11 -47 42 2 18 -1 32 -7 32 -6
0 -11 7 -11 16 0 26 -28 -2 -46 -45 -8 -20 -27 -62 -42 -93 -24 -51 -32 -59
-67 -68 -22 -6 -58 -19 -80 -30 -46 -22 -52 -19 -93 53 -16 29 -38 60 -49 69
-19 17 -20 17 -20 -15 -1 -57 -11 -148 -17 -154 -3 -4 -6 -1 -6 6 0 7 -6 11
-14 8 -15 -6 -46 23 -65 60 -20 40 -8 129 13 95 7 -11 56 -3 56 9 0 11 -55 51
-119 85 -29 15 -68 46 -87 68 -19 22 -34 33 -34 25 0 -25 38 -77 61 -84 13 -4
28 -13 35 -19 11 -11 11 -63 0 -74 -14 -13 -83 39 -125 95 -25 34 -56 67 -68
72 -20 9 -24 7 -29 -14 -9 -35 -33 -40 -44 -9 -6 14 -10 31 -10 37 0 6 -7 1
-17 -12 -24 -35 -32 -95 -18 -128 7 -15 18 -48 26 -72 l13 -43 -38 -35 c-35
-33 -42 -35 -87 -31 -27 3 -49 2 -49 -2 0 -13 55 -28 83 -23 30 6 37 -11 10
-22 -16 -6 -15 -8 7 -25 14 -11 20 -20 14 -20 -25 0 -104 29 -119 44 -9 9 -28
16 -43 16 -15 0 -36 7 -46 15 -11 8 -31 15 -44 15 -15 0 -26 7 -29 20 -7 26
-23 26 -23 1 0 -23 -37 -38 -53 -22 -16 16 -86 13 -148 -6 -30 -9 -57 -16 -61
-15 -5 1 -8 -2 -8 -8 0 -13 31 -13 99 1 43 9 63 8 86 -1 l30 -13 -50 -12 c-50
-13 -50 -13 -13 -14 20 0 61 -6 90 -13 l53 -12 -55 -10 c-43 -9 -55 -15 -52
-28 4 -20 -16 -27 -86 -29 -33 -2 -56 -8 -61 -17 -4 -8 -23 -17 -42 -22 l-34
-7 34 -15 34 -15 -73 -25 c-41 -13 -75 -29 -77 -34 -2 -5 11 -18 28 -28 27
-16 44 -17 123 -11 86 6 246 -7 271 -23 5 -4 25 -7 42 -9 55 -3 86 -24 95 -63
14 -57 18 -129 8 -135 -4 -3 -11 -34 -15 -69 -5 -49 -3 -70 9 -92 l16 -29 -6
43 c-10 63 26 52 42 -13 8 -36 23 -57 35 -49 16 9 10 39 -12 58 -17 14 -20 24
-14 54 4 20 18 46 32 58 25 21 27 21 59 6 38 -19 41 -28 17 -54 -18 -20 -7
-23 33 -8 19 7 30 7 40 -1 8 -6 25 -9 38 -5 17 4 25 1 30 -12 3 -9 14 -30 25
-47 11 -16 20 -45 20 -62 1 -27 -3 -33 -21 -34 -21 -1 -22 -1 -3 -7 55 -18
100 -72 60 -72 -8 0 -15 -7 -15 -15 0 -8 6 -15 14 -15 7 0 19 -13 25 -29 15
-36 11 -107 -6 -103 -7 1 -13 -5 -13 -13 0 -8 -8 -15 -17 -15 -15 0 -16 -2 -3
-10 8 -5 13 -10 10 -11 -3 0 -13 -2 -23 -4 -11 -2 -19 5 -23 22 -4 13 -10 21
-14 16 -7 -7 4 -75 25 -155 8 -30 -10 -39 -32 -17 -15 15 -39 -27 -25 -44 5
-7 12 -32 15 -57 5 -37 2 -49 -16 -68 -20 -21 -20 -25 -6 -35 9 -7 22 -23 29
-37 l13 -24 9 24 c5 14 6 35 3 47 -7 29 0 29 38 -3 22 -18 37 -24 55 -19 30 7
62 -19 62 -51 0 -18 -10 -28 -44 -43 -25 -11 -47 -28 -51 -40 -7 -23 2 -44 15
-36 5 3 13 -2 18 -12 14 -24 -53 -66 -81 -51 -13 7 -23 6 -30 -1 -8 -8 -16 -6
-29 6 -17 15 -18 15 -18 -5 0 -12 13 -45 28 -74 16 -29 32 -68 35 -87 4 -19
17 -41 28 -49 19 -13 21 -21 15 -78 -6 -57 -5 -63 10 -57 14 5 16 3 11 -11 -4
-10 -7 -23 -7 -29 0 -7 -7 -4 -14 6 -13 16 -14 16 -19 -4 -3 -12 -1 -31 4 -41
11 -21 5 -51 -16 -72 -13 -12 -36 -193 -35 -271 1 -29 1 -29 16 10 8 22 12 54
9 72 -3 17 -3 49 1 72 5 34 8 38 20 26 8 -7 14 -23 14 -36 0 -18 2 -20 16 -9
13 11 16 10 20 -8 4 -12 11 -19 20 -15 12 4 11 -1 -1 -31 -8 -19 -15 -44 -15
-55 0 -11 -4 -21 -8 -23 -5 -1 -12 -24 -15 -50 l-7 -48 35 0 c30 0 35 -3 35
-23 0 -32 -11 -40 -26 -20 -10 15 -12 12 -12 -20 0 -20 4 -37 8 -37 4 0 10
-11 12 -25 4 -21 2 -24 -13 -20 -16 5 -17 0 -14 -41 3 -49 -16 -120 -31 -117
-5 1 -16 4 -24 7 -13 5 -15 -7 -16 -76 l-2 -83 17 47 c17 52 60 102 76 90 19
-13 75 -83 75 -92 0 -6 -9 -10 -21 -10 -12 0 -23 -8 -26 -20 -3 -11 -8 -18
-12 -16 -4 3 -8 -7 -9 -22 -1 -14 3 -29 9 -33 27 -17 8 -140 -37 -236 -12 -24
-13 -36 -5 -52 14 -26 15 -73 1 -51 -18 27 -10 3 21 -71 21 -49 35 -106 43
-166 11 -94 20 -121 23 -75 1 15 9 43 18 62 l16 35 -7 -34 c-4 -23 -3 -31 5
-27 7 5 11 -4 11 -26 0 -26 3 -30 11 -18 8 11 8 9 2 -10 -4 -14 -7 -40 -5 -57
1 -18 2 -45 3 -60 3 -46 -13 -157 -24 -171 -6 -7 -10 -35 -9 -62 1 -35 -5 -56
-19 -75 -17 -21 -20 -34 -14 -75 4 -28 11 -48 16 -45 13 9 1 -181 -13 -204
-11 -18 -10 -23 8 -36 15 -10 20 -22 17 -40 -3 -14 0 -31 6 -39 13 -16 13
-164 0 -172 -5 -3 -21 9 -35 26 -15 17 -28 29 -31 26 -6 -6 16 -43 46 -78 20
-23 25 -40 25 -88 1 -55 0 -59 -20 -54 -25 6 -42 -23 -19 -32 21 -8 19 -17
-15 -67 -30 -45 -37 -63 -22 -53 22 13 33 -14 30 -75 l-3 -64 -24 40 c-13 22
-24 52 -25 67 0 16 -4 28 -8 28 -4 0 -23 17 -43 38 -23 24 -35 32 -35 21 0 -9
9 -24 20 -34 11 -10 17 -22 14 -27 -11 -18 6 -58 25 -58 16 0 19 -8 19 -57 0
-32 5 -138 11 -237 7 -98 9 -181 6 -185 -4 -3 -14 -6 -23 -6 -14 0 -17 -12
-19 -60 -2 -40 -8 -64 -19 -72 -14 -10 -14 -14 0 -42 9 -16 16 -39 16 -50 0
-11 16 -37 36 -57 l35 -37 -28 -23 c-21 -18 -24 -23 -11 -24 9 0 29 5 43 12
35 16 39 6 15 -34 -14 -25 -18 -44 -14 -66 7 -37 7 -37 38 -17 22 15 24 14 31
-7 4 -13 6 -27 5 -33 -6 -25 -4 -162 2 -152 8 13 1 -87 -14 -193 -5 -41 -12
-203 -14 -360 -7 -512 -8 -528 -39 -585 -15 -27 -32 -54 -39 -58 -8 -6 -8 -10
1 -13 21 -9 26 -69 9 -102 -9 -17 -16 -44 -16 -59 0 -32 -16 -91 -30 -113 -8
-12 -13 -13 -30 -2 -28 17 -31 16 -28 -15 3 -24 -1 -28 -22 -28 -14 0 -28 5
-32 10 -4 6 -8 -7 -8 -27 0 -41 -24 -78 -51 -78 -27 0 -43 -29 -45 -79 -1 -25
-2 -48 -4 -51 -2 -6 -6 -26 -8 -52 -1 -11 -10 -18 -22 -18 -11 0 -20 -4 -20
-9 0 -11 -39 -3 -57 12 -7 5 -18 27 -24 49 -7 29 -14 37 -21 30 -8 -8 -6 -18
6 -36 9 -15 14 -26 11 -26 -3 0 2 -15 12 -32 9 -18 16 -36 15 -40 -1 -4 6 -4
15 -1 11 4 14 3 9 -5 -17 -27 -82 -5 -134 45 -18 17 -17 18 -18 -22 0 -23 4
-34 11 -32 6 3 19 -1 29 -9 18 -13 18 -14 -8 -24 -15 -5 -41 -10 -57 -10 -17
0 -40 -5 -51 -11 -11 -6 -71 -12 -132 -14 -87 -2 -111 -5 -111 -16 0 -8 8 -13
17 -13 10 1 16 -2 13 -6 -3 -5 5 -11 17 -13 23 -4 23 -4 2 -12 -12 -3 -27 -17
-34 -30 -7 -13 -27 -31 -44 -39 -17 -9 -42 -25 -56 -36 l-25 -21 75 2 c106 2
109 1 86 -16 -11 -8 -17 -17 -14 -21 4 -3 237 -8 520 -11 282 -3 529 -8 548
-12 19 -4 49 -4 65 -1 98 23 149 31 225 35 47 2 108 8 135 12 28 5 75 5 105 0
30 -4 70 -9 88 -11 40 -4 42 -6 61 -64 19 -56 42 -65 66 -25 9 15 28 36 42 47
33 24 106 31 126 11 19 -19 53 -20 64 -1 4 7 25 16 46 20 27 5 37 4 32 -3 -3
-6 1 -11 9 -11 9 0 16 6 16 13 0 9 2 9 8 -1 5 -7 26 -22 48 -34 21 -11 41 -23
44 -27 22 -28 139 -93 152 -85 20 12 78 22 83 14 3 -5 -2 -16 -11 -24 -14 -15
-14 -16 4 -16 11 0 23 7 26 16 4 10 13 13 26 9 12 -4 27 -2 34 4 13 11 33 13
101 9 17 -1 55 -1 85 0 30 1 70 2 88 2 19 0 45 -9 59 -20 27 -21 58 -26 67
-11 3 5 -15 15 -41 22 -25 8 -48 21 -50 29 -2 9 -14 20 -25 25 -29 13 -38 39
-11 31 11 -3 38 -8 60 -10 45 -4 66 -13 58 -26 -3 -5 16 -12 42 -16 31 -5 48
-3 51 4 2 7 20 3 50 -12 58 -30 108 -41 117 -27 3 6 -2 11 -13 11 -22 0 -72
36 -72 51 0 6 9 8 19 4 11 -3 22 -1 25 4 4 6 20 5 44 -3 22 -8 62 -11 98 -8
43 3 72 -1 95 -11 59 -27 71 -26 81 11 9 32 9 32 74 32 36 0 85 -5 110 -11 31
-8 48 -8 57 -1 16 13 120 -36 155 -73 23 -25 56 -33 66 -16 6 9 90 24 163 29
12 1 35 13 51 27 28 24 36 25 151 25 99 0 121 3 121 14 0 19 13 27 55 32 25 3
37 -1 44 -13 6 -10 11 -14 11 -10 0 4 10 2 23 -5 12 -7 37 -18 54 -24 32 -11
33 -11 30 19 -2 28 2 31 52 48 29 10 59 23 65 28 6 5 26 12 45 16 18 4 53 16
77 26 23 11 68 24 98 30 60 11 77 6 130 -38 41 -34 62 -27 58 19 -3 33 -1 37
25 42 41 9 137 5 144 -6 8 -13 88 16 159 58 33 19 65 32 70 29 6 -4 7 1 3 11
-4 11 -2 15 4 11 15 -10 73 14 126 51 26 19 47 31 47 28 0 -5 94 34 132 55 10
5 25 9 33 9 8 0 15 4 15 9 0 5 10 7 23 4 18 -4 19 -3 7 6 -11 8 -4 9 30 5 42
-6 47 -4 59 20 8 14 24 27 35 27 84 6 103 16 110 55 4 19 11 34 17 34 6 0 7 6
3 13 -4 6 -4 9 1 5 4 -4 16 -3 27 3 11 6 36 13 55 15 42 5 94 34 86 47 -3 5 4
6 17 2 15 -5 27 -1 41 14 11 12 28 21 37 21 18 0 52 33 52 49 0 6 10 13 21 16
23 8 99 82 99 96 0 5 11 11 25 15 14 3 23 10 20 14 -3 5 4 6 15 3 13 -4 39 8
74 32 57 39 73 60 53 69 -7 3 -2 3 11 0 12 -3 23 -1 23 5 3 26 4 30 12 37 4 4
7 2 7 -4 0 -18 20 -14 27 6 4 9 17 25 30 35 13 10 20 23 17 28 -3 6 2 9 12 7
11 -2 18 2 17 9 -2 7 4 10 12 7 8 -4 15 -2 15 3 0 5 17 9 38 8 37 -1 76 20 66
36 -3 5 2 12 10 15 9 3 16 12 16 20 0 8 5 14 11 14 6 0 9 6 7 12 -3 7 17 30
44 51 26 21 48 43 48 48 0 6 -4 7 -10 4 -14 -9 -12 19 3 34 10 10 8 11 -8 5
-12 -5 4 19 39 59 60 67 113 97 175 97 14 0 33 5 41 11 13 8 12 12 -7 26 -25
17 -29 39 -12 63 9 12 10 11 4 -5 -4 -14 -3 -17 5 -9 13 13 2 46 -13 37 -6 -3
-7 -1 -3 6 4 6 12 8 18 5 7 -5 9 -1 5 9 -4 11 -2 14 9 10 7 -3 14 -1 14 5 0 5
10 9 23 9 12 0 35 5 52 12 16 7 37 10 47 8 22 -6 23 0 3 19 -18 19 -20 47 -3
42 7 -3 19 2 27 10 13 13 13 16 -4 28 -10 7 -22 11 -26 8 -5 -3 -9 0 -9 5 0 6
5 11 11 11 6 0 9 8 7 18 -5 19 6 34 34 45 11 4 16 14 13 27 -3 14 5 31 21 47
14 14 23 32 20 41 -3 10 -1 24 4 32 6 10 10 11 10 3 0 -7 5 -13 11 -13 6 0 8
9 4 20 -4 14 -2 19 7 16 27 -9 79 70 98 151 11 43 24 79 30 81 5 2 10 12 10
22 0 10 5 22 10 25 16 10 51 85 45 95 -3 6 -1 10 6 10 6 0 9 8 6 20 -3 11 -1
18 3 15 5 -3 12 5 15 17 4 13 16 33 27 45 l20 22 -22 -6 c-19 -5 -18 -2 10 28
23 26 29 40 25 58 -4 14 -1 27 6 32 7 4 13 16 14 26 0 10 5 24 9 31 4 7 5 25
2 40 -5 20 -4 23 4 12 7 -12 10 -7 10 20 0 45 10 81 20 75 5 -3 6 4 3 14 -3
10 1 30 8 42 7 13 12 36 10 52 -1 15 2 27 8 27 6 0 11 9 11 20 0 11 4 20 9 20
5 0 12 19 16 41 5 29 10 38 16 28 6 -10 9 -6 9 13 0 25 2 27 25 18 29 -11 30
-7 10 53 -9 28 -14 75 -12 133 2 84 5 95 46 177 36 71 48 87 66 87 19 0 24 7
29 38 3 20 8 53 11 72 5 27 0 48 -22 90 -25 49 -28 67 -30 160 -1 58 -6 147
-11 199 -9 92 -7 171 6 201 3 8 6 21 6 29 1 8 9 15 19 17 11 1 21 4 23 7 13
13 1 366 -13 376 -6 3 -13 23 -17 45 -4 21 -11 46 -16 55 -20 38 -38 101 -50
171 -15 90 -47 159 -111 235 -12 13 -16 35 -15 65 5 103 4 98 34 92 15 -2 32
-8 37 -12 11 -7 83 -26 128 -33 18 -3 27 0 27 9 0 8 -4 14 -10 14 -5 0 -10 5
-10 10 0 6 -18 37 -40 69 -25 37 -40 70 -40 89 0 37 9 64 20 57 4 -3 14 3 21
12 12 15 12 16 -3 10 -10 -3 -20 -2 -23 3 -4 6 -15 10 -26 10 -10 0 -28 9 -39
20 -11 11 -22 20 -25 20 -3 0 -10 0 -16 0 -6 0 -9 6 -6 14 3 8 -6 24 -19 37
-14 13 -51 61 -81 106 -31 45 -60 80 -65 77 -4 -3 -8 -1 -8 5 0 5 5 11 11 13
6 2 13 57 16 133 l6 129 -26 -17 c-25 -16 -26 -16 -56 14 -17 16 -34 29 -38
28 -4 -1 -13 7 -18 17 -6 11 -19 31 -29 46 -16 25 -17 44 -4 81 2 5 -13 14
-32 21 -43 15 -48 16 -59 16 -5 0 -19 15 -30 34 -18 29 -24 53 -30 113 0 7 -4
12 -8 11 -12 -4 -48 25 -52 42 -1 8 -4 25 -5 37 0 12 -3 20 -5 17 -2 -2 -17 6
-33 17 -16 12 -27 24 -24 27 9 8 -15 33 -25 26 -5 -3 -6 2 -3 11 4 9 2 15 -4
13 -10 -3 -48 41 -99 117 -15 22 -44 60 -64 85 -20 25 -64 87 -99 139 -80 120
-125 164 -232 229 -48 29 -90 57 -93 62 -6 9 -28 21 -116 58 -57 24 -89 51
-82 68 3 8 29 27 58 44 56 32 75 58 52 72 -8 4 -22 19 -31 33 -15 23 -15 28
-1 47 23 34 18 40 -11 13 -44 -41 -81 -34 -139 26 -28 28 -69 60 -93 71 -27
12 -56 38 -82 73 -40 54 -49 59 -102 55 -21 -1 -31 5 -40 25 -8 17 -18 25 -28
22 -27 -7 -49 10 -43 34 4 14 0 25 -11 31 -9 5 -16 16 -16 24 0 8 5 12 10 9 6
-3 10 -1 10 4 0 6 -9 11 -21 11 -11 0 -17 5 -14 10 8 13 -23 13 -99 0 -64 -10
-77 -5 -196 75 -26 17 -80 41 -120 53 -41 13 -84 28 -95 34 -27 16 -194 18
-264 4 l-56 -12 -55 47 c-30 26 -65 52 -77 58 -13 6 -38 35 -57 64 -54 83 -69
96 -126 107 -68 13 -282 13 -350 0 -52 -10 -82 -22 -127 -50 -19 -12 -24 -12
-42 4 -11 10 -24 15 -30 12 -5 -3 -31 14 -56 39 -26 25 -51 45 -54 45 -4 0
-13 16 -20 35 l-12 35 -53 -30 c-61 -35 -135 -40 -207 -15 -30 11 -57 14 -84
9 -22 -5 -42 -8 -45 -8 -3 -1 -21 -13 -40 -27 -19 -15 -45 -29 -57 -31 -20 -5
-21 -2 -25 81 -4 82 -3 88 26 131 17 25 41 55 55 68 17 16 21 26 14 33 -15 15
-49 -4 -91 -49 -36 -39 -14 -37 -210 -12 -122 16 -241 66 -274 114 -11 17 -31
13 -49 -9 -17 -19 -18 -19 -90 -1 -41 10 -83 21 -94 26 -35 13 -114 30 -148
31 -17 0 -26 3 -19 6 6 2 10 8 7 12 -2 5 12 21 33 37 58 45 132 123 132 139 0
22 -47 18 -106 -9 -41 -19 -58 -35 -92 -89 -38 -61 -62 -88 -62 -71 0 4 16 40
35 80 19 40 35 77 35 82 0 14 -43 20 -70 10z m-60 -198 c0 -6 -7 -13 -16 -17
-8 -3 -13 -12 -10 -19 7 -18 -15 -18 -40 0 -21 16 -13 31 21 39 34 8 45 7 45
-3z m233 -57 c15 -7 27 -17 27 -22 0 -11 -25 -21 -51 -21 -22 0 -149 55 -149
65 0 11 144 -7 173 -22z m-373 2 c0 -8 6 -15 13 -15 9 0 13 -16 12 -54 0 -46
-5 -60 -30 -88 -16 -18 -33 -37 -37 -42 -6 -8 -21 1 -58 38 -27 26 -25 38 8
60 15 10 38 40 50 67 21 48 42 65 42 34z m57 -37 c-3 -8 -6 -5 -6 6 -1 11 2
17 5 13 3 -3 4 -12 1 -19z m453 -44 c35 -78 34 -71 15 -71 -8 0 -15 4 -15 9 0
5 -5 6 -11 2 -7 -4 -10 -1 -7 7 3 8 -3 32 -13 54 -21 45 -24 65 -9 65 5 0 23
-30 40 -66z m-265 20 c46 -24 51 -41 14 -49 -62 -14 -98 9 -99 62 0 16 44 9
85 -13z m185 16 c0 -5 -8 -10 -17 -10 -15 0 -16 2 -3 10 19 12 20 12 20 0z
m182 -17 c10 -9 18 -22 18 -30 0 -19 -43 -13 -52 7 -18 40 1 53 34 23z m126
-77 c12 -4 36 -5 53 -1 24 6 28 9 18 21 -15 19 7 19 52 0 28 -12 38 -24 53
-69 10 -30 16 -60 12 -66 -4 -5 -22 -13 -41 -17 -30 -5 -38 -1 -81 41 -41 39
-53 46 -76 41 -16 -3 -28 -1 -28 4 0 5 -16 12 -36 16 -32 6 -35 9 -29 33 9 36
25 43 54 22 15 -10 36 -22 49 -25z m292 -6 c23 -1 22 -3 -12 -21 -37 -19 -43
-28 -38 -59 1 -9 -9 -3 -24 13 -14 15 -26 40 -26 54 0 24 2 25 38 19 20 -3 48
-6 62 -6z m-3128 -134 c28 -26 59 -46 80 -50 51 -9 78 -32 78 -66 0 -16 -4
-31 -9 -34 -5 -3 -7 -15 -4 -26 5 -17 0 -20 -28 -20 -58 0 -76 10 -83 41 -3
17 -12 29 -21 29 -11 0 -15 12 -15 51 0 47 -2 51 -21 46 -12 -3 -29 -1 -39 6
-17 10 -17 13 -4 39 8 15 16 28 17 28 2 0 24 -20 49 -44z m178 24 c0 -5 -4
-10 -10 -10 -5 0 -10 5 -10 10 0 6 5 10 10 10 6 0 10 -4 10 -10z m2952 -57
c-2 -16 -11 -33 -19 -40 -8 -6 -12 -16 -8 -22 3 -6 2 -11 -2 -11 -15 0 -103
59 -103 68 0 5 24 14 53 19 84 17 85 16 79 -14z m-164 -33 c18 -11 38 -20 45
-20 25 -1 49 -28 42 -49 -9 -28 -20 -26 -53 9 -16 17 -36 30 -43 30 -18 0 -59
28 -59 41 0 15 33 10 68 -11z m670 -40 c18 -11 47 -20 65 -20 39 0 137 -39
137 -56 0 -24 -32 -37 -100 -40 -58 -3 -68 -2 -64 11 4 9 -2 18 -15 23 -35 13
-91 102 -63 102 4 0 22 -9 40 -20z m831 -23 c29 -14 40 -45 19 -58 -14 -9 -77
-4 -118 11 -70 24 -207 16 -278 -17 -26 -12 -35 -13 -47 -3 -21 17 -19 25 13
46 22 15 47 19 146 19 92 0 120 3 124 14 5 16 99 8 141 -12z m-1239 -48 c0
-15 -4 -19 -16 -15 -9 3 -18 6 -20 6 -2 0 -4 7 -4 15 0 8 9 15 20 15 14 0 20
-7 20 -21z m218 3 c2 -7 -7 -12 -22 -12 -27 0 -35 15 -13 23 17 7 30 3 35 -11z
m-324 -43 c-3 -5 0 -9 7 -9 7 0 10 -2 7 -5 -3 -4 -17 -3 -32 1 -27 6 -35 29
-13 37 15 5 39 -12 31 -24z m-3534 0 c27 -6 50 -15 50 -21 0 -12 -42 -5 -111
16 -36 12 -39 14 -17 15 15 1 50 -4 78 -10z m4346 -16 c-10 -10 -19 5 -10 18
6 11 8 11 12 0 2 -7 1 -15 -2 -18z m-176 -13 c0 -5 -4 -10 -10 -10 -5 0 -10 5
-10 10 0 6 5 10 10 10 6 0 10 -4 10 -10z m-1759 -205 c7 -16 23 -45 36 -62 28
-39 19 -69 -25 -79 -15 -4 -31 -9 -37 -13 -5 -3 -20 -7 -32 -8 -16 -3 -22 2
-25 19 -2 18 -9 23 -33 23 -23 0 -31 -5 -33 -22 -2 -13 -9 -23 -16 -23 -7 0
-18 -11 -24 -24 -11 -25 -94 -58 -151 -60 -22 -1 -27 -5 -24 -21 4 -15 -3 -11
-25 14 -28 33 -52 36 -52 5 0 -34 -17 -9 -38 53 -16 49 -19 70 -10 80 20 24
46 14 70 -28 13 -23 33 -48 45 -56 20 -13 21 -13 16 6 -3 12 -9 21 -14 21 -15
0 -5 104 11 116 12 10 12 17 2 38 -15 34 -15 41 1 28 21 -16 78 -20 84 -5 3 7
18 13 33 13 20 0 30 -6 34 -22 7 -23 7 -23 17 -3 14 30 45 40 116 40 60 0 63
-1 74 -30z m3189 -46 c27 -6 50 -14 50 -19 0 -9 -91 9 -104 21 -13 11 -8 11
54 -2z m-4093 -35 c13 -13 14 -22 4 -54 -6 -21 -18 -41 -26 -44 -21 -8 -45 3
-45 20 0 8 -7 17 -15 20 -21 8 -19 17 11 48 31 30 49 33 71 10z m113 6 c-17
-10 -17 -10 33 -33 41 -18 45 -28 21 -48 -12 -10 -20 -10 -35 -1 -26 17 -37
15 -67 -8 -14 -12 -29 -17 -34 -12 -21 21 42 112 77 112 16 0 17 -2 5 -10z
m4098 -7 c33 -15 35 -17 14 -21 -29 -5 -55 5 -48 17 4 5 -2 12 -11 14 -10 3
-12 5 -5 6 7 0 29 -7 50 -16z m-1593 -83 c-3 -5 -10 -10 -16 -10 -5 0 -9 5 -9
10 0 6 7 10 16 10 8 0 12 -4 9 -10z m-2428 -47 c-4 -3 -2 -12 4 -19 8 -10 5
-15 -15 -20 -14 -3 -45 -29 -70 -56 -42 -47 -48 -50 -95 -51 -28 0 -53 1 -55
4 -2 2 -6 23 -9 47 -3 36 -1 42 15 42 10 0 37 8 61 19 23 10 56 23 72 28 34
12 102 17 92 6z m-573 -68 c3 -8 13 -15 23 -15 19 -1 53 -22 53 -34 0 -11 -34
-7 -82 11 -46 16 -61 36 -35 46 22 10 35 7 41 -8z m266 -15 c0 -5 -4 -10 -10
-10 -5 0 -21 -12 -35 -26 -22 -22 -31 -24 -70 -18 -25 3 -45 10 -45 15 0 8 63
29 88 29 6 0 12 5 12 10 0 6 14 10 30 10 17 0 30 -4 30 -10z m3413 -66 c-3 -8
-14 -14 -25 -14 -11 0 -16 -4 -13 -11 4 -6 13 -8 21 -5 8 3 23 -4 34 -16 16
-18 27 -20 69 -15 37 4 53 2 61 -9 10 -11 9 -14 -4 -14 -10 0 -14 -4 -11 -10
3 -5 -1 -10 -9 -10 -8 0 -18 5 -22 11 -3 6 -19 9 -35 7 -15 -3 -26 -1 -23 3 2
4 -11 5 -30 2 -26 -4 -42 0 -66 17 -29 21 -30 23 -13 36 17 13 17 15 0 28 -14
11 -16 19 -7 40 l10 27 34 -26 c21 -16 33 -32 29 -41z m-1403 5 c0 -5 -4 -9
-10 -9 -5 0 -14 -9 -20 -20 -10 -19 -8 -20 39 -17 27 2 57 9 66 17 21 17 252
36 319 26 37 -6 46 -11 42 -23 -5 -12 -1 -14 18 -9 13 3 37 -1 53 -9 37 -19
178 -38 238 -33 25 2 45 1 45 -2 0 -6 88 -43 110 -47 56 -8 80 -15 80 -23 0
-6 7 -10 16 -10 9 0 29 -9 45 -21 19 -13 36 -18 50 -14 15 5 19 4 14 -5 -5 -8
-1 -11 10 -8 10 1 32 -9 48 -24 16 -16 35 -28 43 -28 8 0 14 -7 14 -15 0 -17
49 -32 59 -19 11 16 31 15 25 -1 -6 -13 26 -33 63 -39 6 -1 22 -10 35 -19 12
-9 32 -24 43 -31 17 -13 18 -18 8 -35 -8 -13 -9 -22 -3 -26 6 -4 8 -10 5 -15
-3 -5 -1 -11 5 -15 6 -4 8 -10 5 -15 -3 -5 14 -14 37 -20 67 -16 259 -80 302
-101 22 -11 44 -19 49 -19 5 0 22 -9 38 -21 16 -11 37 -22 47 -23 9 -2 16 -7
15 -12 -1 -5 7 -12 18 -16 10 -4 19 -15 19 -25 0 -9 16 -34 36 -54 l36 -37
-17 -76 c-18 -80 -15 -109 9 -100 20 8 55 -33 62 -74 4 -22 15 -37 30 -44 13
-6 24 -17 24 -23 0 -7 11 -25 25 -41 27 -31 32 -63 15 -95 -9 -16 -7 -19 9
-19 11 0 23 5 26 10 5 8 11 7 21 -1 10 -8 12 -25 8 -65 -6 -46 -3 -59 20 -98
15 -25 29 -46 31 -46 16 0 37 74 41 148 6 97 10 116 22 108 5 -3 5 -30 1 -61
-4 -31 -3 -70 2 -87 11 -41 -4 -98 -37 -138 -24 -28 -25 -30 -6 -30 11 0 22 3
24 8 5 12 76 62 88 62 6 0 22 -13 35 -28 13 -15 46 -38 74 -52 47 -22 68 -50
39 -50 -7 0 -5 -5 6 -11 15 -9 16 -13 5 -20 -11 -7 -10 -9 4 -9 23 0 22 -22
-3 -38 -27 -17 -25 -32 4 -32 13 0 26 -4 28 -9 2 -6 15 -11 31 -13 48 -7 85
-79 102 -200 4 -35 2 -53 -11 -72 -9 -14 -21 -23 -26 -20 -6 4 -7 -2 -3 -16 5
-15 1 -28 -13 -43 -10 -12 -23 -29 -28 -38 -5 -9 -31 -35 -57 -58 -63 -54 -86
-53 -206 8 -95 48 -207 91 -237 91 -8 0 -29 7 -46 16 -25 13 -32 14 -39 2 -15
-22 -10 -38 14 -47 13 -5 29 -16 36 -25 14 -17 52 -20 86 -7 28 11 57 2 50
-17 -3 -8 5 -25 19 -39 14 -13 26 -34 28 -46 2 -15 20 -31 58 -50 46 -24 63
-28 105 -23 27 3 51 10 53 16 2 5 24 19 49 30 25 11 63 36 85 55 42 39 76 55
113 55 37 0 39 -17 6 -51 -35 -35 -37 -39 -16 -39 22 0 18 -16 -7 -32 -15 -10
-60 -17 -122 -20 -54 -3 -101 -10 -105 -15 -3 -6 -16 -13 -28 -17 -13 -4 -23
-12 -23 -17 0 -14 43 -11 83 6 20 8 57 15 81 15 l45 0 -10 -30 c-14 -40 4 -57
70 -66 64 -8 67 -24 4 -24 -47 -1 -47 -1 -28 -18 51 -45 69 -73 67 -103 -2
-21 5 -36 23 -52 31 -27 43 -88 25 -122 -11 -20 -10 -28 4 -50 9 -14 24 -25
33 -25 22 0 93 -32 93 -42 0 -4 -10 -8 -22 -8 -23 -1 -23 -1 3 -24 19 -17 24
-27 18 -39 -10 -16 17 -87 33 -87 4 0 14 -13 23 -30 14 -27 14 -36 -2 -95 -17
-66 -33 -85 -33 -40 0 26 -19 75 -29 75 -12 0 -33 -44 -36 -77 -3 -38 20 -72
38 -54 19 19 27 12 27 -20 0 -18 10 -43 24 -60 18 -21 24 -41 24 -73 0 -24 5
-53 11 -64 6 -12 11 -42 11 -69 0 -49 20 -93 43 -93 14 0 37 -45 37 -72 0 -10
-3 -18 -7 -18 -5 0 -8 -60 -8 -134 0 -74 -3 -129 -8 -123 -4 7 -5 -4 -1 -24 3
-23 1 -46 -7 -60 -7 -13 -14 -62 -15 -109 -2 -107 -12 -176 -31 -218 -8 -18
-12 -38 -10 -45 2 -7 0 -20 -5 -29 -5 -11 -5 -25 2 -37 6 -13 7 -42 1 -83 -6
-43 -5 -65 2 -70 8 -4 7 -11 -1 -20 -12 -15 -34 -100 -34 -137 0 -14 -7 -41
-16 -60 -8 -20 -14 -54 -14 -76 0 -31 -1 -35 -8 -20 -8 19 -9 18 -11 -5 -1
-14 -2 -31 -2 -37 1 -7 -4 -13 -9 -13 -6 0 -7 -11 -4 -24 6 -26 6 -26 -86 -1
-25 6 -28 4 -28 -16 0 -14 -13 -36 -30 -52 -26 -25 -29 -33 -24 -67 4 -22 1
-47 -6 -60 -8 -15 -8 -20 -1 -16 6 4 11 2 11 -3 0 -6 -4 -11 -10 -11 -5 0 -10
-7 -10 -15 0 -8 -14 -34 -31 -58 -29 -42 -30 -46 -19 -87 9 -35 8 -59 -5 -129
-10 -47 -22 -97 -28 -111 -13 -31 -14 -36 -16 -56 -1 -11 -14 -3 -41 27 -34
38 -39 49 -35 77 8 42 -12 50 -56 23 -46 -28 -64 -26 -100 9 -32 30 -66 46
-76 36 -3 -3 0 -12 7 -21 7 -8 13 -34 14 -57 1 -38 -2 -42 -27 -49 -40 -11
-57 -28 -57 -55 0 -20 5 -24 33 -24 18 0 42 7 53 15 47 35 93 -1 79 -64 -7
-33 -22 -41 -31 -16 -9 23 -24 18 -24 -7 0 -34 -37 -69 -110 -104 -84 -41
-105 -48 -225 -73 -237 -49 -302 -63 -330 -72 -16 -5 -59 -13 -95 -19 -86 -13
-166 -35 -154 -43 12 -7 90 -2 194 12 41 6 112 11 156 11 87 0 133 14 173 51
19 18 27 20 42 11 12 -8 27 -9 42 -3 12 5 43 10 67 12 l45 4 -1 -66 c-2 -80
-17 -112 -95 -200 -32 -37 -55 -69 -52 -73 4 -3 19 -6 35 -6 15 0 28 -2 28 -4
0 -2 3 -11 6 -19 4 -11 -11 -23 -48 -41 -78 -39 -101 -53 -115 -72 -7 -9 -17
-13 -24 -8 -7 4 -10 3 -6 -3 4 -6 -12 -23 -35 -39 -23 -16 -62 -49 -87 -74
-25 -25 -54 -49 -63 -53 -10 -3 -18 -17 -19 -29 0 -13 -3 -17 -6 -10 -4 10 -8
10 -19 1 -8 -6 -14 -16 -14 -21 0 -6 -11 -19 -25 -30 -24 -18 -36 -46 -15 -33
6 3 7 -1 3 -10 -4 -11 -8 -13 -13 -6 -5 8 -14 8 -33 -2 -15 -8 -24 -17 -20
-20 3 -4 1 -7 -5 -7 -5 0 -17 -3 -25 -6 -15 -5 -61 34 -83 72 -7 11 -20 18
-30 16 -11 -2 -36 -6 -56 -9 -27 -4 -35 -9 -31 -20 8 -20 -16 -93 -39 -119
-11 -12 -33 -25 -50 -28 -18 -3 -56 -18 -85 -32 -30 -14 -62 -22 -72 -19 -12
4 -23 -2 -34 -18 -11 -17 -28 -26 -59 -30 -28 -4 -48 -13 -57 -26 -7 -12 -20
-21 -27 -21 -8 0 -14 -4 -14 -9 0 -11 -20 -18 -80 -26 -25 -4 -49 -10 -55 -14
-26 -19 -77 11 -104 62 -23 42 -27 45 -74 51 -32 3 -57 13 -69 26 -10 11 -23
20 -28 20 -15 0 -40 -43 -40 -70 0 -64 -7 -70 -75 -70 -88 0 -137 21 -219 92
-39 35 -73 65 -76 68 -15 17 -70 50 -82 50 -8 0 -27 13 -43 30 -27 28 -27 30
-11 55 9 14 14 29 12 34 -3 5 6 17 21 27 l28 17 -30 10 c-17 6 -32 13 -35 16
-3 4 -18 14 -33 24 -15 10 -30 24 -33 31 -12 31 -182 196 -217 211 -41 17 -97
20 -97 5 0 -5 6 -10 14 -10 17 0 29 -27 16 -35 -11 -7 1 -34 24 -58 31 -31 29
-61 -6 -100 -29 -31 -43 -38 -95 -45 -33 -5 -69 -5 -79 -1 -28 11 -84 10 -84
-1 0 -15 -107 -12 -120 3 -6 6 -17 21 -24 31 -12 17 -15 18 -28 5 -8 -8 -20
-25 -27 -37 -7 -13 -19 -21 -26 -18 -26 10 -38 -20 -22 -53 16 -32 8 -54 -23
-63 -18 -6 -75 22 -115 57 l-30 26 28 -4 c41 -6 43 11 3 19 -20 3 -62 24 -95
45 -33 21 -64 39 -68 39 -12 1 -83 114 -83 131 0 8 -6 23 -13 34 -18 27 -27
65 -16 65 6 0 21 -11 35 -25 13 -13 27 -25 29 -25 3 0 10 0 16 0 5 0 7 -4 4
-10 -3 -5 0 -10 8 -10 8 0 28 -7 46 -16 18 -9 35 -14 37 -11 3 3 -5 25 -18 49
-19 33 -38 50 -84 73 -59 30 -104 80 -104 116 0 23 8 21 129 -39 52 -26 118
-68 146 -94 65 -59 124 -75 310 -84 123 -6 185 2 185 23 0 8 -86 55 -262 146
-50 25 -84 37 -95 32 -14 -5 -10 -10 22 -22 158 -60 186 -94 89 -111 -101 -17
-209 25 -258 100 -10 15 -23 25 -28 22 -6 -4 -5 3 1 15 6 11 23 24 36 27 49
12 23 21 -82 27 -111 7 -163 17 -220 44 -28 13 -36 25 -52 82 -11 36 -21 82
-23 101 -2 19 -7 33 -11 30 -5 -3 -13 3 -18 12 -6 10 -17 18 -24 18 -9 0 -15
10 -16 23 0 20 -1 21 -8 2 -7 -18 -20 113 -27 269 -1 32 -7 95 -13 140 -17
122 -21 172 -25 273 -2 50 -6 96 -10 101 -3 6 -4 43 -1 84 2 40 7 127 10 193
4 66 13 140 22 165 11 34 13 67 9 135 -4 50 -7 171 -7 269 0 147 2 181 15 195
9 10 19 40 22 67 4 27 12 55 18 63 8 11 8 15 -1 18 -20 7 -15 53 6 71 22 20
51 132 51 199 0 29 8 65 20 88 14 27 20 56 19 88 -2 26 -4 47 -5 47 -1 0 -15
-25 -30 -55 -27 -54 -54 -78 -54 -50 0 8 5 15 10 15 17 0 11 39 -10 58 -20 19
-20 19 43 79 35 33 70 68 78 79 8 10 22 26 32 33 18 14 19 11 12 -77 -6 -66
-4 -92 4 -92 6 0 11 -8 11 -17 0 -15 2 -15 9 -4 5 8 12 64 16 125 3 61 13 156
21 210 17 121 18 208 2 278 l-11 53 -8 -35 c-5 -19 -6 -43 -3 -53 9 -28 -15
-232 -32 -274 -33 -82 -47 -105 -80 -136 -20 -18 -51 -37 -69 -44 -30 -10 -35
-9 -55 12 -46 49 -46 119 0 265 11 36 19 83 19 105 -1 23 -4 30 -6 18 -2 -13
-8 -23 -12 -23 -12 0 -21 112 -11 125 5 6 9 22 8 36 -3 52 2 80 14 73 7 -4 8
-3 4 4 -10 16 -13 242 -3 242 4 0 7 15 7 34 0 40 22 66 56 66 27 0 32 15 8 24
-13 5 -14 9 -4 21 14 17 40 20 40 6 0 -5 10 -11 22 -13 12 -2 28 -13 34 -26
11 -21 13 -22 28 -7 9 9 16 18 16 20 0 2 -21 17 -47 33 -27 16 -70 50 -98 75
-27 26 -53 47 -56 47 -19 0 -42 95 -48 197 -4 65 -12 118 -20 127 -8 10 -11
32 -7 67 3 29 7 53 8 54 2 1 21 14 43 29 l40 26 -34 -6 c-19 -4 -32 -3 -30 2
2 5 16 34 30 64 15 30 32 71 39 90 7 19 20 43 29 53 11 14 12 22 5 35 -8 12
-7 31 3 69 17 67 12 217 -9 260 -15 30 -15 32 13 63 16 17 29 34 29 37 0 4
-14 18 -31 33 -29 24 -30 27 -15 42 9 9 16 27 16 40 0 37 -20 97 -34 105 -17
10 -37 101 -25 109 12 7 12 51 0 59 -5 3 -12 1 -16 -5 -13 -21 -20 -9 -22 36
-1 26 -6 51 -12 57 -6 6 -11 26 -11 44 0 37 21 44 56 18 43 -33 44 -12 1 31
-26 25 -47 51 -48 57 -3 31 4 63 17 78 8 9 11 18 8 22 -13 13 10 50 40 62 24
10 43 11 75 4 24 -5 53 -6 65 -2 18 6 17 8 -12 13 -45 7 -44 21 1 43 30 15 37
24 37 48 0 32 16 38 35 12 12 -17 16 -16 53 5 22 12 51 22 64 22 13 0 29 5 35
11 11 11 252 30 268 20 14 -9 104 -7 98 2 -5 9 0 9 21 1 9 -3 13 -10 10 -15
-3 -5 2 -12 10 -15 9 -3 16 -12 16 -20 0 -20 13 -17 40 6 13 12 31 19 39 18 9
-2 24 9 34 25 9 15 23 27 30 26 27 -3 39 2 78 39 l42 37 106 1 c69 0 118 5
139 15 36 15 142 14 142 -2z m-946 -41 c-9 -24 -79 -49 -149 -53 -39 -3 -96
-9 -128 -13 -32 -5 -81 -5 -110 -1 -28 5 -62 6 -75 2 -41 -10 -16 15 26 27 45
12 76 12 47 0 -18 -8 -17 -9 8 -9 31 -1 70 16 63 27 -2 4 19 7 46 7 35 -1 54
-6 62 -18 8 -9 16 -13 22 -7 5 4 50 17 99 28 50 11 91 21 92 21 1 1 0 -5 -3
-11z m-1011 -111 c7 -18 -3 -66 -16 -74 -6 -3 -21 7 -35 22 l-24 28 24 18 c28
22 44 24 51 6z m-135 -56 c10 -6 7 -10 -12 -13 -26 -5 -41 3 -29 16 9 8 25 7
41 -3z m5278 -6 c6 -16 -12 -45 -27 -45 -10 0 -12 44 -2 53 11 11 23 8 29 -8z
m100 -331 c89 -30 200 -143 260 -264 14 -30 37 -69 50 -86 13 -17 21 -34 18
-36 -2 -3 2 -11 11 -18 8 -7 15 -21 15 -31 0 -10 4 -20 9 -23 4 -3 11 -23 15
-43 4 -26 16 -46 37 -62 17 -14 35 -34 40 -45 5 -12 18 -34 28 -51 11 -16 20
-39 20 -49 1 -10 15 -41 31 -68 17 -26 30 -57 30 -67 0 -11 11 -28 24 -38 14
-10 28 -30 31 -45 6 -25 4 -27 -47 -36 -149 -28 -259 -43 -268 -37 -20 12 -56
-3 -57 -24 -2 -28 24 -33 84 -18 29 8 77 12 108 9 48 -4 56 -8 61 -28 6 -21
12 -24 58 -24 56 -1 73 -10 96 -53 13 -26 12 -32 -10 -75 -14 -26 -28 -50 -33
-53 -5 -4 -5 -9 1 -13 6 -3 29 12 53 34 77 72 135 86 196 49 l35 -22 -27 -25
c-26 -24 -27 -26 -9 -39 24 -17 27 -49 12 -100 -12 -41 -14 -43 -53 -43 -49
-1 -66 -13 -93 -65 -24 -47 -76 -98 -183 -177 -72 -53 -119 -103 -119 -126 0
-6 10 -18 23 -28 17 -13 18 -15 3 -10 -11 4 -23 1 -30 -8 -7 -9 -22 -12 -43
-9 -41 7 -41 13 0 38 28 18 32 26 35 70 3 40 9 56 35 83 l32 33 -25 19 c-25
19 -44 21 -68 6 -7 -4 -19 -3 -26 3 -10 8 -17 7 -26 -4 -18 -21 -108 -20 -140
2 -43 30 -82 75 -76 88 25 67 29 99 18 154 -7 31 -12 71 -12 88 0 17 -9 42
-21 57 -11 14 -17 26 -13 26 4 0 0 6 -9 13 -15 10 -16 16 -5 45 9 22 19 32 34
32 42 0 79 74 41 84 -11 3 -28 1 -37 -4 -10 -5 -20 -6 -24 -3 -3 3 -6 1 -6 -5
0 -7 -9 -12 -20 -12 -11 0 -20 6 -20 14 0 18 -22 26 -69 26 -21 0 -61 13 -94
30 -32 17 -65 30 -73 30 -18 0 -44 24 -44 39 0 15 23 14 38 -1 6 -6 15 -9 19
-5 4 4 1 13 -5 19 -7 7 -12 29 -12 49 0 36 -21 66 -38 55 -9 -6 -49 71 -41 79
3 2 17 -2 33 -10 15 -8 49 -14 75 -14 26 1 57 -4 69 -12 41 -26 32 -1 -18 51
-29 29 -56 62 -61 74 -6 12 -16 32 -24 46 -8 14 -15 39 -15 56 0 16 -5 35 -12
42 -20 20 -16 179 6 235 14 38 22 47 42 47 13 0 29 9 36 20 7 11 19 20 26 20
7 0 10 5 7 10 -3 6 4 10 16 10 18 0 20 3 11 12 -11 11 -77 -2 -133 -26 -22 -9
-31 38 -22 111 l6 56 92 -6 c51 -4 114 -14 141 -23z m-6198 -64 c27 -25 28
-31 5 -23 -24 8 -43 24 -43 34 0 15 15 10 38 -11z m5758 -164 c2 -10 9 -24 15
-32 7 -8 9 -17 6 -20 -9 -9 -27 5 -27 22 0 8 -4 14 -10 14 -12 0 -50 37 -50
48 0 4 8 18 18 30 l17 22 14 -33 c7 -17 15 -40 17 -51z m31 -118 c-3 -8 -6 -5
-6 6 -1 11 2 17 5 13 3 -3 4 -12 1 -19z m41 -1 c2 -10 -3 -17 -12 -17 -10 0
-16 9 -16 21 0 24 23 21 28 -4z m-4614 -123 c9 -8 16 -23 16 -32 0 -9 7 -30
15 -45 16 -32 11 -54 -15 -62 -21 -7 -70 14 -70 29 0 6 -8 16 -19 23 -26 16
-33 64 -14 86 20 21 66 22 87 1z m-1194 -210 c0 -3 -7 0 -16 7 -14 11 -18 11
-29 -4 -6 -9 -15 -14 -18 -10 -11 10 -8 45 2 38 5 -3 13 0 16 6 7 10 45 -21
45 -37z m6880 36 c0 -5 -4 -10 -10 -10 -5 0 -10 5 -10 10 0 6 5 10 10 10 6 0
10 -4 10 -10z m-5386 -157 c-2 -43 -33 -140 -49 -153 -10 -8 -15 4 -24 53 -12
72 -13 104 -1 67 7 -21 8 -19 9 17 1 31 6 43 19 46 36 10 47 2 46 -30z m3926
-141 c0 -4 -9 -8 -20 -8 -11 0 -20 4 -20 8 0 4 9 8 20 8 11 0 20 -4 20 -8z
m-4730 -307 c0 -22 -37 -38 -58 -26 -15 10 -15 11 6 17 12 3 22 10 22 15 0 5
7 9 15 9 8 0 15 -7 15 -15z m-63 -52 c2 -6 -8 -13 -22 -15 -27 -6 -32 1 -13
20 14 14 30 11 35 -5z m5633 2 c34 -18 40 -45 10 -45 -20 0 -70 37 -70 52 0
13 28 9 60 -7z m-5220 -18 c37 -24 70 -73 75 -109 1 -13 9 -48 17 -78 15 -57
16 -200 1 -222 -4 -7 -8 -20 -8 -28 0 -21 -44 -26 -51 -6 -4 10 -18 16 -40 16
l-34 0 0 -57 c0 -54 -2 -59 -31 -75 -24 -14 -34 -15 -49 -5 -11 6 -20 22 -20
34 0 12 -5 23 -10 25 -6 2 -3 12 7 23 24 26 46 124 38 169 -4 19 -27 65 -51
102 -24 37 -44 71 -44 75 0 5 -18 9 -39 9 -28 0 -49 7 -68 24 l-27 24 26 23
c32 29 177 77 234 78 27 1 52 -7 74 -22z m6095 -95 c20 -15 17 -97 -6 -141
-14 -28 -19 -51 -16 -70 4 -16 2 -43 -3 -61 -7 -25 -6 -32 8 -37 35 -12 42
-23 29 -44 -14 -23 -25 -24 -48 -3 -16 15 -19 14 -31 -5 -7 -12 -22 -21 -34
-21 -12 0 -27 -7 -34 -15 -7 -8 -23 -15 -36 -15 -13 0 -35 -11 -50 -25 -15
-14 -37 -25 -50 -25 -13 0 -30 -10 -38 -22 -13 -19 -26 -23 -78 -24 -70 -1
-104 12 -86 33 6 7 17 13 24 13 8 0 14 9 14 19 0 11 6 21 13 24 6 2 2 2 -10 1
-15 -3 -24 2 -29 18 -6 19 3 31 50 73 31 28 56 56 56 63 0 6 7 12 15 12 8 0
15 -4 15 -10 0 -5 5 -10 10 -10 6 0 10 11 10 25 0 24 69 105 89 105 16 0 91
72 107 103 8 15 23 27 34 27 10 0 22 5 25 10 7 12 36 13 50 2z m-7055 -132 c0
-11 -52 -52 -57 -46 -3 2 3 18 11 35 11 20 21 28 31 25 8 -4 15 -10 15 -14z
m640 -5 c17 -9 30 -19 30 -24 0 -14 -34 -38 -62 -45 -27 -6 -35 4 -29 38 1 5
-6 6 -15 2 -9 -3 -26 -8 -37 -10 -12 -2 -16 -1 -9 1 6 3 12 10 12 17 0 36 59
47 110 21z m-642 -120 c1 -48 -3 -49 -41 -17 -16 15 -16 17 5 39 12 13 25 23
28 23 4 0 8 -20 8 -45z m322 15 c0 -5 -4 -10 -10 -10 -5 0 -10 5 -10 10 0 6 5
10 10 10 6 0 10 -4 10 -10z m140 -104 c0 -8 -4 -18 -10 -21 -5 -3 -10 3 -10
14 0 12 5 21 10 21 6 0 10 -6 10 -14z m5980 -5 c0 -12 -8 -17 -45 -25 l-30 -7
25 21 c27 21 50 26 50 11z m-6103 -33 c-3 -8 -6 -5 -6 6 -1 11 2 17 5 13 3 -3
4 -12 1 -19z m-2 -108 c8 -13 -5 -13 -25 0 -13 8 -13 10 2 10 9 0 20 -4 23
-10z m749 -16 c34 -13 11 -124 -26 -124 -10 0 -18 -6 -18 -14 0 -12 -20 -26
-36 -26 -15 0 24 128 48 158 12 14 11 14 32 6z m6006 -86 c18 -94 36 -115 136
-158 41 -18 74 -38 74 -45 0 -7 -21 -35 -46 -61 -25 -27 -57 -67 -71 -89 -15
-22 -44 -57 -65 -78 -21 -21 -38 -42 -38 -47 0 -6 -5 -10 -11 -10 -11 0 -45
-34 -109 -110 -61 -73 -69 -80 -96 -80 -17 0 -28 -6 -31 -20 -3 -11 -14 -20
-24 -20 -11 0 -19 -4 -19 -10 0 -5 6 -10 14 -10 17 0 28 -27 21 -51 -3 -10 1
-28 9 -41 8 -13 15 -26 16 -30 1 -9 8 -33 15 -50 3 -7 21 -33 40 -58 18 -25
50 -73 69 -106 20 -34 50 -71 68 -83 73 -46 113 -75 119 -83 8 -12 -10 -88
-21 -88 -4 0 -12 -11 -18 -25 -8 -17 -20 -25 -36 -25 -26 0 -36 -16 -36 -60 0
-16 -3 -36 -6 -45 -8 -20 -72 -47 -96 -39 -10 3 -18 1 -18 -5 0 -15 36 -32 54
-25 12 5 15 2 10 -10 -3 -9 -1 -16 4 -16 19 0 23 -36 8 -65 -26 -49 -47 -41
-83 30 -18 36 -30 72 -27 80 8 19 -11 35 -86 74 -30 16 -84 59 -120 95 -36 36
-70 66 -77 66 -20 0 -43 30 -43 56 0 20 5 24 29 24 17 0 33 -4 36 -10 11 -18
25 -11 25 13 1 12 8 40 16 62 9 22 21 63 28 90 12 46 11 54 -11 105 -13 30
-28 57 -33 58 -19 7 -10 42 15 58 14 9 25 22 25 30 0 8 9 19 19 26 19 11 18
13 -11 31 -17 10 -40 21 -52 23 -11 2 -23 9 -27 15 -4 7 -16 9 -28 6 -12 -3
-22 0 -23 6 0 7 -2 17 -2 23 -1 7 -20 32 -44 58 -23 25 -46 56 -51 69 -16 41
-5 110 24 152 15 22 31 50 36 63 5 12 13 22 19 22 14 0 40 25 40 39 0 21 34
81 46 81 7 0 24 -12 38 -27 24 -25 26 -26 31 -7 4 10 11 26 16 34 5 8 12 23
15 33 4 9 11 17 16 17 5 0 6 5 3 10 -4 6 -2 16 4 23 5 7 9 26 9 43 -1 17 2 36
6 43 9 14 80 51 98 51 7 0 32 13 55 29 34 23 53 29 90 27 l48 -1 15 -77z
m-446 36 c20 -14 18 -15 -26 -13 -44 3 -56 8 -43 20 10 11 50 7 69 -7z m-5776
-206 c2 -10 -1 -18 -7 -18 -6 0 -11 -7 -11 -15 0 -8 -7 -15 -15 -15 -10 0 -12
-6 -8 -17 7 -17 6 -17 -11 0 -9 9 -22 17 -27 17 -16 0 -10 49 7 58 27 15 68 9
72 -10z m-78 -88 c0 -11 6 -18 13 -16 6 1 9 1 5 -1 -5 -3 -8 -9 -8 -15 0 -5
-10 -18 -22 -28 -21 -17 -23 -17 -39 4 -15 18 -15 24 -3 48 17 33 54 39 54 8z
m-420 -337 c0 -19 5 -21 47 -21 40 0 51 -5 86 -41 41 -40 52 -82 33 -122 -5
-12 1 -18 26 -25 l32 -10 -37 -23 c-45 -28 -44 -34 4 -21 42 13 82 5 131 -26
21 -13 49 -24 63 -24 22 0 25 -4 25 -35 0 -35 -14 -55 -66 -95 -11 -8 -40 -31
-64 -51 -25 -20 -63 -45 -85 -57 -22 -11 -53 -31 -68 -45 -26 -22 -28 -28 -22
-71 7 -42 11 -48 36 -53 16 -3 32 -10 35 -14 3 -5 14 -9 24 -9 10 0 22 -9 25
-20 7 -23 -12 -53 -30 -47 -22 9 -49 -23 -52 -61 -2 -20 -5 -59 -7 -87 -5 -59
-1 -68 24 -55 22 12 32 0 49 -57 6 -24 15 -43 19 -43 4 0 9 -27 10 -60 3 -47
0 -61 -12 -66 -9 -3 -16 -11 -16 -16 0 -6 -7 -16 -17 -23 -22 -16 -10 -45 19
-46 13 0 17 -3 11 -6 -20 -8 -15 -27 10 -38 12 -6 23 -21 25 -33 4 -28 -33
-73 -53 -66 -7 3 -16 1 -20 -5 -9 -16 -25 -14 -25 3 0 15 -27 30 -47 27 -18
-3 -16 40 2 75 22 43 18 112 -10 190 -14 38 -25 77 -25 87 0 20 22 47 39 47 6
0 11 7 11 16 0 10 -6 14 -15 11 -24 -10 -27 11 -3 27 12 9 19 19 15 23 -9 8
-66 -24 -84 -46 -17 -22 -17 -81 1 -81 31 0 34 -142 4 -205 -24 -49 -32 -54
-46 -29 -11 20 -17 7 -27 -57 -5 -36 -3 -48 14 -66 12 -12 21 -33 21 -47 0
-14 14 -41 30 -59 35 -40 37 -59 11 -113 -20 -41 -41 -129 -41 -168 0 -25 52
-86 74 -86 8 0 29 -6 47 -14 l34 -14 -50 -23 c-47 -22 -48 -23 -22 -27 41 -5
189 75 256 139 55 52 68 80 74 151 7 77 2 95 -17 64 -6 -11 -24 -34 -40 -53
-23 -27 -35 -33 -70 -33 -55 0 -86 -9 -86 -26 0 -16 41 -28 75 -22 58 12 7
-64 -62 -92 -32 -12 -83 -7 -83 8 0 4 -16 6 -36 4 -46 -6 -66 18 -59 71 7 48
21 73 68 120 27 26 47 37 68 37 35 0 90 22 126 50 14 11 35 20 47 20 21 1 21
1 1 17 -16 13 -17 15 -2 10 9 -4 17 -2 17 3 0 6 6 10 14 10 9 0 12 7 9 20 -3
11 0 20 6 20 6 0 11 -9 11 -19 0 -11 5 -23 10 -26 6 -3 10 -15 10 -26 0 -24
44 -43 82 -35 15 3 30 1 33 -4 3 -6 19 -10 34 -10 17 0 55 -19 100 -51 63 -44
72 -54 69 -77 -2 -19 -9 -27 -22 -27 -22 0 -32 -24 -41 -109 -6 -52 -12 -64
-45 -95 -83 -78 -117 -98 -141 -82 -26 16 -44 -2 -53 -53 -7 -38 -7 -38 20
-32 23 6 25 5 19 -11 -9 -21 -24 -116 -19 -122 2 -2 10 -1 18 2 9 4 17 28 21
71 4 37 11 69 16 72 5 3 7 10 3 15 -3 5 -2 9 3 8 4 -1 17 1 28 6 11 4 34 14
51 20 43 17 92 79 120 150 19 52 23 56 23 29 1 -16 -3 -34 -8 -40 -5 -5 -14
-79 -20 -163 -11 -148 -7 -251 9 -251 10 0 22 -102 25 -210 2 -47 8 -97 14
-112 6 -15 10 -45 10 -65 0 -21 1 -54 2 -73 2 -37 2 -130 0 -167 -1 -16 -8
-23 -28 -25 -26 -3 -28 -7 -29 -48 -1 -24 4 -54 12 -65 16 -22 20 -195 5 -195
-6 0 -6 -12 0 -30 6 -16 15 -30 20 -30 5 0 9 -16 9 -35 0 -44 -21 -54 -134
-61 -44 -3 -82 -7 -84 -9 -2 -1 16 -6 40 -10 120 -18 151 -55 132 -155 -14
-68 -99 -61 -178 15 -27 25 -53 42 -61 39 -7 -3 -18 4 -25 16 -9 17 -20 21
-53 20 -120 -5 -152 0 -179 25 -15 14 -30 25 -34 25 -4 0 -16 7 -26 17 -17 15
-18 15 -18 -1 0 -23 38 -96 50 -96 5 0 12 -11 16 -25 3 -13 12 -29 20 -36 8
-6 14 -22 14 -35 0 -14 8 -25 20 -29 25 -8 28 -55 4 -55 -8 0 -23 -7 -32 -16
-15 -15 -16 -15 -22 0 -5 14 -8 14 -35 0 -16 -8 -33 -20 -36 -26 -4 -6 -24
-12 -45 -14 -20 -2 -57 -12 -81 -24 -54 -25 -52 -25 -93 5 -35 26 -51 62 -70
155 -5 25 -22 86 -39 135 -41 125 -56 291 -55 607 1 222 3 258 17 273 9 8 19
16 22 15 45 -3 45 -4 45 80 0 75 2 83 27 108 15 15 26 34 25 43 -1 8 10 29 25
45 15 16 28 33 28 38 0 5 21 15 48 24 46 15 63 32 31 32 -30 0 -74 33 -74 57
0 12 -6 26 -12 30 -25 16 -58 72 -52 88 4 9 -2 23 -13 33 -35 31 -46 75 -39
159 4 43 8 98 10 123 11 125 24 221 33 232 6 7 16 37 23 66 6 28 17 52 22 52
12 0 5 160 -7 193 -5 12 -2 17 10 17 16 0 17 8 10 78 -4 42 -11 79 -15 82 -5
3 -11 22 -15 43 -4 20 -12 37 -17 37 -5 0 -9 19 -7 43 1 23 -3 53 -8 67 -16
37 -33 184 -33 276 0 45 -3 83 -6 86 -3 4 -7 52 -10 108 -3 89 -1 111 23 183
14 45 34 91 43 102 31 36 38 58 32 98 -4 31 -1 43 13 53 23 17 55 -2 55 -33z
m6233 -374 c-10 -36 -33 -13 -33 33 0 20 1 20 19 4 11 -10 17 -25 14 -37z
m-5608 -38 c-3 -6 -14 -11 -23 -11 -13 0 -13 2 4 14 21 15 30 14 19 -3z m34
-71 c-7 -33 -17 -60 -22 -60 -9 0 0 70 15 109 16 43 21 13 7 -49z m-74 30 c-3
-5 -11 -10 -16 -10 -6 0 -7 5 -4 10 3 6 11 10 16 10 6 0 7 -4 4 -10z m-68 -27
c6 -8 9 -21 6 -29 -7 -19 -33 -18 -33 2 0 35 -32 2 -71 -73 -15 -28 -50 -34
-89 -15 -26 13 -29 17 -16 24 9 5 16 14 16 21 0 23 47 67 86 80 44 16 83 12
101 -10z m6333 -30 c0 -5 -8 -18 -18 -31 -16 -21 -19 -21 -37 -7 -20 15 -20
15 -1 30 21 16 56 20 56 8z m-647 -20 c-7 -2 -13 -14 -13 -26 0 -12 -7 -31
-16 -42 -13 -17 -16 -18 -24 -5 -7 12 -5 49 4 56 10 8 43 23 51 23 6 0 4 -3
-2 -6z m-98 -103 c3 -5 2 -10 -4 -10 -5 0 -13 5 -16 10 -3 6 -2 10 4 10 5 0
13 -4 16 -10z m-5827 -69 c11 -6 10 -10 -4 -15 -16 -6 -16 -9 -4 -17 12 -8 9
-9 -10 -5 -14 3 -31 6 -37 6 -7 0 -13 9 -13 20 0 15 7 20 28 20 15 0 33 -4 40
-9z m262 -7 c0 -8 -5 -12 -10 -9 -6 4 -8 11 -5 16 9 14 15 11 15 -7z m-248
-149 c6 -14 17 -25 25 -25 7 0 13 -5 13 -10 0 -6 7 -10 16 -8 10 2 23 -10 33
-28 9 -17 22 -29 29 -26 9 3 8 -8 -4 -37 -25 -64 1 -131 53 -131 16 0 23 6 23
20 0 18 7 20 85 19 47 0 85 -2 85 -4 0 -2 -5 -16 -12 -32 -19 -45 -36 -176
-25 -190 14 -18 24 -16 30 7 3 11 9 20 15 20 8 0 14 -20 29 -109 2 -14 9 -33
15 -44 7 -15 7 -22 -3 -28 -11 -7 -10 -9 4 -9 9 0 17 -4 17 -10 0 -5 -4 -10
-9 -10 -5 0 -16 -3 -25 -6 -8 -3 -22 3 -33 15 -18 22 -43 28 -43 11 0 -13 -42
4 -80 32 -30 22 -39 51 -20 63 6 3 10 17 10 30 0 13 4 26 8 29 5 3 7 18 4 34
-2 17 1 39 8 51 13 26 4 85 -13 74 -6 -4 -8 0 -4 10 3 8 0 18 -8 21 -18 6 -25
-15 -25 -72 0 -69 -33 -178 -53 -174 -8 1 -18 -2 -22 -8 -13 -20 -25 -9 -25
23 0 17 -6 44 -14 59 -8 15 -17 40 -20 55 -8 35 -78 141 -107 161 -25 17 -49
71 -49 109 0 14 10 47 22 72 37 79 51 88 70 46z m5938 -155 c0 -5 6 -10 13
-10 21 0 56 -30 51 -43 -2 -7 -21 -19 -40 -26 -33 -12 -37 -11 -52 10 -20 28
-32 65 -24 73 9 10 52 7 52 -4z m-5465 -165 c0 -16 4 -45 8 -64 7 -33 7 -33
-16 -19 -27 18 -31 36 -22 94 5 35 9 41 18 32 7 -7 12 -26 12 -43z m5305 31
c0 -3 -4 -8 -10 -11 -5 -3 -10 -1 -10 4 0 6 5 11 10 11 6 0 10 -2 10 -4z m-19
-47 c8 -12 12 -11 23 4 9 12 16 14 21 7 4 -6 1 -17 -5 -25 -10 -12 -10 -15 0
-15 19 0 50 -43 44 -62 -4 -12 0 -18 11 -18 8 0 20 -12 26 -27 10 -27 11 -27
21 -8 10 18 16 54 17 113 1 19 3 21 14 10 20 -22 47 -75 47 -93 0 -12 -6 -15
-19 -10 -36 11 -31 -13 9 -40 33 -23 40 -34 40 -61 0 -79 -39 -107 -87 -62
-13 12 -26 19 -29 15 -10 -9 2 -21 43 -42 39 -21 63 -39 63 -49 0 -4 -9 -1
-20 6 -10 7 -22 9 -25 6 -7 -7 10 -69 28 -103 19 -37 26 -360 8 -435 -5 -25
-12 -57 -16 -72 -4 -22 -11 -28 -30 -28 -23 0 -25 -3 -25 -50 0 -57 -39 -155
-70 -177 -11 -8 -20 -21 -20 -29 0 -8 -11 -20 -25 -26 -14 -6 -25 -18 -25 -27
0 -9 -9 -27 -20 -41 -11 -14 -20 -29 -20 -34 0 -4 -11 -21 -25 -38 -14 -16
-25 -38 -25 -49 0 -11 -4 -18 -9 -15 -5 3 -16 -5 -25 -18 -24 -38 -62 -76 -75
-76 -6 0 -11 -7 -11 -15 0 -8 -11 -22 -25 -31 -14 -9 -25 -22 -25 -29 0 -16
-22 -25 -62 -25 -17 0 -36 -7 -42 -16 -9 -12 -17 -13 -40 -4 -23 8 -34 7 -52
-5 -13 -8 -30 -15 -39 -15 -8 0 -15 -6 -15 -14 0 -8 -20 -38 -45 -67 -46 -54
-100 -85 -166 -95 -21 -4 -46 -15 -55 -25 -9 -11 -23 -19 -31 -19 -20 0 -16
-10 12 -32 31 -24 31 -34 3 -50 -13 -7 -23 -19 -24 -25 -1 -7 -2 -19 -2 -26
-1 -8 -20 -19 -42 -26 -22 -7 -38 -16 -35 -21 3 -4 -4 -6 -16 -3 -33 9 -69
-16 -69 -49 0 -21 -5 -28 -19 -28 -11 0 -23 -4 -26 -10 -3 -5 -23 -10 -43 -10
-20 0 -46 -7 -56 -15 -11 -8 -30 -15 -42 -15 -29 0 -36 -22 -16 -51 30 -43 41
-87 28 -114 -13 -28 -41 -33 -50 -9 -6 15 -8 15 -31 0 -13 -9 -33 -16 -45 -16
-11 0 -20 -5 -20 -11 0 -6 -9 -24 -20 -39 -14 -19 -16 -30 -8 -32 6 -2 9 -12
5 -21 -5 -12 -18 -17 -49 -17 -57 0 -88 -9 -88 -26 0 -17 -32 -18 -48 -2 -9 9
-12 9 -12 -1 0 -7 -4 -9 -10 -6 -6 3 -10 -4 -10 -17 0 -18 -2 -20 -9 -9 -6 9
-6 22 1 34 12 23 2 35 -62 70 -62 34 -68 64 -20 98 20 15 46 29 57 33 11 4 28
15 38 26 10 11 29 20 42 20 12 0 23 3 23 8 0 4 19 6 41 4 23 -3 44 0 48 5 3 4
18 16 33 26 40 25 58 74 48 128 -5 24 -5 46 -1 49 5 3 11 18 15 35 4 16 25 46
47 67 21 20 39 39 39 41 0 10 70 77 79 77 6 0 11 6 11 13 0 15 37 40 65 44 48
7 62 14 75 38 7 14 22 25 33 25 16 0 17 2 7 15 -7 9 -11 17 -9 18 35 27 70 47
83 47 9 0 16 8 16 19 0 11 5 23 10 26 6 4 8 11 4 16 -3 5 -1 8 4 7 5 -2 28 16
51 40 37 38 65 54 58 34 -2 -8 14 -29 51 -66 l23 -22 -27 -28 c-22 -21 -25
-29 -15 -39 10 -9 14 -8 22 5 5 10 28 20 53 23 53 8 59 12 75 51 22 56 -3 244
-40 296 -26 36 -43 199 -25 233 6 11 10 22 11 25 0 3 11 17 25 32 28 29 84 48
145 48 22 0 48 7 58 14 22 17 23 88 2 106 -21 17 -19 37 4 45 22 7 76 133 87
204 4 23 11 41 15 41 5 0 23 -14 41 -30 20 -19 38 -28 47 -24 9 3 33 8 54 11
53 8 62 31 31 75 -14 19 -28 52 -31 74 -3 21 -17 55 -29 74 -32 50 -37 79 -20
127 8 24 20 80 26 125 16 125 37 166 82 163 11 -1 24 -8 29 -16z m614 -6 c3
-10 1 -19 -4 -21 -6 -2 -11 -22 -11 -44 0 -40 0 -40 32 -34 18 3 35 12 39 18
5 7 11 9 15 5 4 -4 -5 -18 -19 -31 -15 -14 -27 -35 -27 -46 0 -12 -12 -42 -27
-67 l-26 -45 -14 33 c-12 28 -12 37 0 61 8 17 13 53 11 91 -2 67 2 97 16 97 4
0 11 -8 15 -17z m-7005 -138 c-7 -9 -15 -13 -17 -11 -7 7 7 26 19 26 6 0 6 -6
-2 -15z m1080 -205 c8 -5 11 -10 5 -10 -5 0 -17 5 -25 10 -8 5 -10 10 -5 10 6
0 17 -5 25 -10z m-1055 -790 c3 -6 -1 -7 -9 -4 -18 7 -21 14 -7 14 6 0 13 -4
16 -10z m1405 -1133 c0 -10 57 -61 112 -99 54 -37 58 -44 51 -81 -4 -19 -11
-27 -27 -27 -24 1 -56 22 -56 38 0 5 -10 12 -23 16 -13 3 -40 20 -61 38 l-38
33 21 27 c12 14 21 29 21 32 0 15 -31 4 -54 -19 -33 -33 -58 -24 -54 19 3 27
6 31 32 29 22 -2 27 1 23 15 -22 67 -21 68 17 27 20 -22 36 -43 36 -48z m29
-207 c10 -5 35 -10 55 -12 20 -1 36 -7 36 -13 0 -5 10 -26 21 -45 l21 -34 19
23 c11 13 19 32 19 42 0 13 7 19 23 19 13 0 28 5 34 11 8 8 17 8 32 -1 24 -12
270 -94 316 -105 36 -8 75 -42 75 -66 0 -10 5 -21 10 -24 6 -3 10 -15 10 -26
0 -18 -3 -18 -50 7 -40 21 -53 24 -65 14 -16 -13 -39 -4 -29 11 3 6 0 9 -7 8
-8 -2 -43 16 -78 39 -35 23 -72 43 -83 44 -10 1 -32 2 -50 3 -29 2 -30 1 -12
-12 10 -8 67 -42 127 -75 59 -34 107 -65 107 -70 0 -4 5 -8 11 -8 16 0 87 -53
94 -69 7 -17 -10 -38 -47 -57 -28 -15 -31 -14 -68 18 -21 18 -39 38 -39 43 -2
19 -133 137 -169 152 -21 8 -39 18 -42 22 -3 3 -24 19 -47 34 l-43 27 -2 -45
c-1 -25 -2 -53 -2 -62 -1 -9 15 -26 35 -37 60 -35 175 -114 188 -130 29 -35
-10 -41 -129 -18 -49 10 -88 23 -181 60 -15 6 -29 21 -33 36 -3 14 -12 26 -20
26 -7 0 -19 7 -26 15 -7 8 -21 15 -32 15 -16 0 -19 5 -16 25 3 14 1 25 -3 25
-5 0 -9 6 -9 14 0 7 -8 24 -18 37 -10 13 -23 41 -31 62 -15 46 -3 67 40 67 16
0 29 5 29 10 0 12 6 13 29 0z m894 -41 c21 -5 40 -16 42 -22 2 -7 7 -21 11
-32 4 -11 8 -27 8 -35 1 -12 17 -16 71 -18 57 -2 73 0 85 15 33 38 90 52 90
22 0 -5 11 -16 24 -24 18 -12 32 -14 65 -6 22 5 41 7 41 5 0 -4 -28 -40 -52
-65 -9 -9 -15 -25 -15 -36 2 -16 -5 -18 -85 -14 -60 2 -88 0 -88 -8 0 -6 -9
-11 -20 -11 -11 0 -20 7 -20 15 0 11 -12 15 -44 15 -42 0 -74 -19 -48 -28 7
-2 12 -12 12 -23 0 -25 26 -35 46 -18 13 10 17 10 25 -2 16 -25 10 -38 -32
-64 -29 -19 -49 -25 -72 -21 -33 5 -77 46 -77 71 0 8 -9 29 -19 46 -15 24 -17
38 -10 61 7 25 4 34 -16 54 -13 13 -32 24 -43 24 -33 0 -44 21 -20 42 12 10
25 18 31 18 5 0 7 11 5 25 -5 23 -2 25 31 25 20 0 53 -5 74 -11z m2354 -35
c-3 -3 -12 -4 -19 -1 -8 3 -5 6 6 6 11 1 17 -2 13 -5z m-3699 -29 c-2 -16 -7
-24 -15 -21 -7 3 -13 -2 -13 -10 0 -13 -5 -12 -29 5 -16 12 -34 21 -40 21 -15
0 -14 17 2 23 6 3 31 6 54 6 40 1 43 -1 41 -24z m3763 -48 c-1 -12 -15 -9 -19
4 -3 6 1 10 8 8 6 -3 11 -8 11 -12z m41 -2 c0 -5 -5 -11 -11 -13 -6 -2 -11 4
-11 13 0 9 5 15 11 13 6 -2 11 -8 11 -13z m-2652 -17 c0 -19 -2 -20 -10 -8
-13 19 -13 30 0 30 6 0 10 -10 10 -22z m2595 -76 c5 -12 16 -22 24 -22 11 0
11 -3 1 -15 -6 -8 -9 -19 -5 -25 10 -16 -90 -12 -130 4 -42 18 -43 25 -7 58
44 42 97 42 117 0z m-4310 18 c22 -5 81 -11 131 -14 81 -4 94 -8 122 -33 39
-33 40 -41 6 -54 -25 -9 -26 -11 -10 -28 9 -9 16 -26 16 -35 0 -21 39 -66 57
-66 7 0 16 6 20 14 9 17 85 24 122 12 16 -6 21 -5 17 3 -4 6 -2 11 4 11 10 0
36 -57 32 -70 -4 -13 -362 -50 -489 -50 -83 0 -169 -23 -157 -41 11 -19 -16
-8 -67 27 -61 41 -126 74 -146 74 -26 0 -2 20 25 21 l27 1 -30 8 c-16 4 -23 8
-14 9 11 1 22 18 30 46 7 25 17 45 21 45 4 0 8 6 8 13 0 24 47 67 74 67 17 0
26 5 26 16 0 11 6 15 20 11 13 -3 20 0 20 9 0 16 71 19 135 4z m343 -73 c8
-10 5 -13 -15 -15 -22 -2 -24 0 -13 13 15 18 15 18 28 2z m212 -267 c0 -10 -5
-12 -32 -14 -7 -1 -16 -5 -19 -9 -3 -4 -13 -5 -23 -1 -15 6 -15 7 1 20 21 16
73 19 73 4z m-87 -37 c-7 -2 -19 -2 -25 0 -7 3 -2 5 12 5 14 0 19 -2 13 -5z
m-729 -33 c34 -13 33 -25 -2 -27 -21 -1 -28 3 -28 18 0 10 1 19 2 19 2 0 14
-4 28 -10z m984 -130 c2 -4 -23 -11 -55 -14 -43 -5 -81 0 -148 16 -103 26
-110 38 -55 84 26 22 47 30 89 34 l56 5 55 -59 c30 -32 56 -62 58 -66z m634
100 c7 0 34 -16 61 -35 68 -51 62 -90 -16 -97 -36 -3 -40 0 -60 37 -12 22 -24
42 -27 45 -13 12 -30 62 -24 71 3 6 15 4 30 -5 13 -9 29 -16 36 -16z m-160
-33 c4 -7 0 -16 -10 -21 -9 -5 -27 -18 -39 -28 -12 -11 -34 -22 -50 -24 -15
-2 -45 -6 -65 -10 -33 -5 -38 -4 -38 14 0 18 51 52 79 52 6 0 11 6 11 14 0 7
9 16 21 19 12 3 18 10 14 17 -4 6 9 4 31 -5 21 -9 42 -21 46 -28z m-889 17
c11 -11 -3 -24 -18 -18 -8 4 -12 10 -9 15 6 11 18 12 27 3z m-812 -14 c4 0 16
-14 24 -31 15 -28 15 -32 0 -49 -9 -10 -51 -27 -93 -38 -127 -34 -155 -32
-144 11 6 26 20 37 48 37 11 0 31 12 45 26 27 30 78 54 97 48 8 -2 18 -4 23
-4z m1301 -132 c-9 -9 -62 6 -62 17 0 4 5 3 10 0 14 -9 12 9 -2 24 -7 7 4 3
25 -9 23 -14 35 -26 29 -32z m-82 26 c0 -2 -9 -4 -21 -4 -11 0 -18 4 -14 10 5
8 35 3 35 -6z m-953 -15 c40 -8 51 -14 46 -26 -8 -21 -169 -15 -183 7 -5 9 -5
17 1 21 17 10 81 9 136 -2z m113 -9 c-18 -12 -43 -13 -36 -2 2 4 15 8 28 9 18
2 19 0 8 -7z m1530 -293 c0 -15 -3 -18 -11 -10 -6 6 -18 9 -25 6 -9 -3 -14 2
-14 12 0 11 5 15 15 11 8 -3 15 -1 15 5 0 6 5 7 10 4 6 -3 10 -16 10 -28z m40
13 c0 -5 -7 -10 -15 -10 -8 0 -15 5 -15 10 0 6 7 10 15 10 8 0 15 -4 15 -10z"/>
<path d="M5100 10010 c0 -5 5 -10 10 -10 6 0 10 5 10 10 0 6 -4 10 -10 10 -5
0 -10 -4 -10 -10z"/>
<path d="M5054 9996 c-4 -10 -2 -22 4 -28 8 -8 13 -7 18 6 4 10 2 22 -4 28 -8
8 -13 7 -18 -6z"/>
<path d="M4890 9830 c0 -5 5 -10 11 -10 5 0 7 5 4 10 -3 6 -8 10 -11 10 -2 0
-4 -4 -4 -10z"/>
<path d="M5720 9549 c-24 -5 -48 -16 -53 -24 -4 -8 -18 -24 -29 -35 -12 -11
-20 -20 -17 -20 10 0 94 42 109 55 8 7 29 17 45 23 37 13 9 14 -55 1z"/>
<path d="M5335 9521 c-10 -17 15 -23 31 -7 14 15 14 16 -5 16 -11 0 -22 -4
-26 -9z"/>
<path d="M5207 9503 c-9 -2 -15 -8 -12 -12 6 -11 55 -1 55 10 0 9 -13 10 -43
2z"/>
<path d="M5014 9485 c-17 -13 -14 -14 43 -15 64 0 96 14 40 18 -18 1 -39 5
-48 7 -8 3 -24 -2 -35 -10z"/>
<path d="M8358 4863 c7 -3 16 -2 19 1 4 3 -2 6 -13 5 -11 0 -14 -3 -6 -6z"/>
<path d="M8341 4523 c33 -35 93 -72 161 -99 32 -12 80 -41 107 -64 31 -26 65
-45 88 -49 46 -9 123 -2 123 10 0 5 -4 9 -9 9 -11 0 -259 106 -281 121 -8 5
-31 16 -50 24 -19 8 -48 22 -63 30 -16 8 -35 15 -43 15 -8 0 -14 4 -14 9 0 5
-10 11 -21 14 -21 6 -21 5 2 -20z"/>
<path d="M8971 4214 c0 -11 3 -14 6 -6 3 7 2 16 -1 19 -3 4 -6 -2 -5 -13z"/>
<path d="M4762 4010 c0 -19 2 -27 5 -17 2 9 2 25 0 35 -3 9 -5 1 -5 -18z"/>
<path d="M8480 3979 c-30 -16 -56 -33 -58 -38 -5 -14 74 -24 97 -12 25 14 44
48 37 67 -7 19 -12 18 -76 -17z"/>
<path d="M7430 3502 c-18 -18 -27 -32 -19 -32 21 1 61 38 57 52 -3 7 -17 -1
-38 -20z"/>
<path d="M9326 8766 c-19 -41 -12 -68 18 -64 15 2 20 -2 18 -14 -1 -10 4 -28
13 -41 8 -13 12 -27 8 -30 -8 -9 27 -47 44 -47 7 0 13 -6 13 -14 0 -8 7 -17
16 -20 23 -9 23 -8 16 17 -10 33 -39 70 -50 63 -6 -4 -8 2 -5 14 3 12 -1 28
-9 38 -21 25 -41 79 -33 91 5 10 -16 41 -28 41 -3 0 -12 -15 -21 -34z"/>
<path d="M9957 7773 c-10 -9 -9 -23 2 -23 5 0 11 7 15 15 5 15 -5 20 -17 8z"/>
<path d="M9820 7761 c0 -6 5 -13 10 -16 6 -3 10 1 10 9 0 9 -4 16 -10 16 -5 0
-10 -4 -10 -9z"/>
<path d="M9920 7756 c0 -9 5 -16 10 -16 6 0 10 4 10 9 0 6 -4 13 -10 16 -5 3
-10 -1 -10 -9z"/>
<path d="M3690 5626 c0 -32 14 -55 26 -43 8 8 -7 77 -17 77 -5 0 -9 -15 -9
-34z"/>
<path d="M4372 4788 c-17 -25 -45 -52 -62 -60 -16 -7 -30 -16 -30 -20 0 -5 -5
-8 -10 -8 -6 0 -52 -34 -103 -75 -115 -94 -107 -88 -139 -102 -31 -14 -37 -33
-11 -33 13 0 14 -3 5 -12 -41 -41 29 -37 73 5 50 47 61 56 92 69 30 13 73 53
73 69 0 5 7 9 15 9 8 0 15 7 15 15 0 8 5 15 11 15 13 0 23 12 75 88 19 29 34
60 32 70 -2 12 -12 4 -36 -30z"/>
<path d="M3760 4580 c0 -5 7 -7 15 -4 8 4 15 8 15 10 0 2 -7 4 -15 4 -8 0 -15
-4 -15 -10z"/>
<path d="M3880 4522 c0 -4 9 -13 20 -20 23 -14 26 -7 6 14 -16 15 -26 18 -26
6z"/>
<path d="M3968 4463 c7 -3 16 -2 19 1 4 3 -2 6 -13 5 -11 0 -14 -3 -6 -6z"/>
<path d="M4062 5576 c7 -8 15 -12 17 -11 5 6 -10 25 -20 25 -5 0 -4 -6 3 -14z"/>
<path d="M9360 3830 c0 -5 5 -10 11 -10 5 0 7 5 4 10 -3 6 -8 10 -11 10 -2 0
-4 -4 -4 -10z"/>
<path d="M9120 3673 c0 -7 -10 -13 -22 -13 -13 0 -30 -4 -38 -10 -9 -6 -17 -5
-22 3 -5 8 -8 7 -8 -4 0 -9 -10 -24 -22 -33 -22 -16 -22 -16 17 -10 50 7 95
24 95 35 0 5 10 9 23 10 15 0 17 2 7 6 -8 3 -18 11 -22 17 -5 8 -8 7 -8 -1z"/>
<path d="M5867 2553 c-12 -12 -7 -33 8 -33 17 0 19 9 7 28 -5 7 -11 9 -15 5z"/>
<path d="M3544 11018 c-4 -7 -14 -24 -22 -38 -14 -24 -13 -24 3 -5 20 24 37
55 31 55 -3 0 -8 -6 -12 -12z"/>
<path d="M5757 10943 c-10 -9 -9 -43 1 -43 12 0 32 23 32 37 0 14 -22 18 -33
6z"/>
<path d="M2912 10900 c0 -14 2 -19 5 -12 2 6 2 18 0 25 -3 6 -5 1 -5 -13z"/>
<path d="M4985 10870 c-3 -5 3 -10 14 -10 11 0 23 5 26 10 3 6 -3 10 -14 10
-11 0 -23 -4 -26 -10z"/>
<path d="M5760 10870 c0 -5 5 -10 11 -10 5 0 7 5 4 10 -3 6 -8 10 -11 10 -2 0
-4 -4 -4 -10z"/>
<path d="M3807 10864 c-7 -8 13 -54 25 -54 9 0 11 22 2 44 -6 17 -16 20 -27
10z"/>
<path d="M4705 10770 c3 -5 8 -10 11 -10 2 0 4 5 4 10 0 6 -5 10 -11 10 -5 0
-7 -4 -4 -10z"/>
<path d="M6660 10761 c0 -5 9 -7 20 -4 11 3 20 7 20 9 0 2 -9 4 -20 4 -11 0
-20 -4 -20 -9z"/>
<path d="M3240 10741 c5 -11 15 -23 21 -27 6 -3 3 5 -6 20 -20 30 -30 35 -15
7z"/>
<path d="M3948 10705 c3 -23 14 -43 34 -60 35 -30 52 -32 43 -6 -3 10 -1 30 4
44 6 15 6 29 2 32 -5 2 -11 -4 -14 -15 -6 -23 -37 -27 -37 -5 0 8 -4 15 -10
15 -5 0 -10 7 -10 15 0 8 -4 15 -8 15 -4 0 -6 -16 -4 -35z"/>
<path d="M4884 10704 c-4 -10 -9 -22 -11 -26 -2 -5 0 -8 6 -8 11 0 26 39 17
47 -3 3 -9 -3 -12 -13z"/>
<path d="M3465 10680 c-14 -45 22 -84 54 -57 9 8 25 17 36 21 19 7 19 9 -8 32
-35 30 -73 32 -82 4z"/>
<path d="M4923 10568 c-32 -16 -31 -40 1 -28 22 8 25 6 31 -21 5 -22 0 -41
-19 -73 -14 -25 -26 -49 -26 -55 0 -18 27 -12 35 7 6 16 7 16 20 -2 12 -16 13
-11 8 36 -4 39 -1 63 11 86 24 46 21 62 -11 61 -16 0 -38 -5 -50 -11z"/>
<path d="M4205 10550 c-3 -5 1 -10 10 -10 9 0 13 5 10 10 -3 6 -8 10 -10 10
-2 0 -7 -4 -10 -10z"/>
<path d="M2715 10430 c-3 -5 1 -10 9 -10 9 0 16 5 16 10 0 6 -4 10 -9 10 -6 0
-13 -4 -16 -10z"/>
<path d="M2832 10420 c-7 -11 -8 -20 -3 -20 9 0 24 30 18 36 -1 2 -8 -6 -15
-16z"/>
<path d="M2862 10398 c6 -18 28 -21 28 -4 0 9 -7 16 -16 16 -9 0 -14 -5 -12
-12z"/>
<path d="M9258 9937 c12 -7 19 -16 16 -20 -4 -4 -1 -7 8 -7 8 0 24 -10 36 -22
38 -40 58 -58 67 -58 4 0 0 10 -11 21 -29 33 -114 99 -127 99 -7 -1 -2 -6 11
-13z"/>
<path d="M9021 9914 c0 -11 3 -14 6 -6 3 7 2 16 -1 19 -3 4 -6 -2 -5 -13z"/>
<path d="M9270 9836 c0 -2 7 -7 16 -10 8 -3 12 -2 9 4 -6 10 -25 14 -25 6z"/>
<path d="M3111 9650 c-1 -18 16 -46 23 -40 2 3 -2 16 -9 30 -8 15 -14 19 -14
10z"/>
<path d="M3200 9525 c0 -19 4 -35 8 -35 4 0 6 16 4 35 -2 19 -6 35 -8 35 -2 0
-4 -16 -4 -35z"/>
<path d="M2970 9461 c0 -17 2 -31 4 -31 8 0 13 51 5 56 -5 3 -9 -9 -9 -25z"/>
<path d="M3240 9470 c0 -5 7 -10 15 -10 8 0 15 5 15 10 0 6 -7 10 -15 10 -8 0
-15 -4 -15 -10z"/>
<path d="M3195 9453 c2 -10 4 -22 4 -26 1 -5 6 -5 11 -2 15 9 12 45 -4 45 -8
0 -13 -8 -11 -17z"/>
<path d="M3194 8477 c3 -37 11 -66 25 -86 12 -16 21 -42 22 -58 1 -33 17 -77
19 -53 4 32 -2 95 -10 105 -4 6 -16 37 -26 70 -24 82 -34 89 -30 22z"/>
<path d="M3241 7804 c0 -11 3 -14 6 -6 3 7 2 16 -1 19 -3 4 -6 -2 -5 -13z"/>
<path d="M3357 6444 c-13 -13 -7 -24 14 -24 11 0 19 5 17 12 -5 14 -22 21 -31
12z"/>
<path d="M3300 6415 c0 -8 5 -15 10 -15 6 0 10 7 10 15 0 8 -4 15 -10 15 -5 0
-10 -7 -10 -15z"/>
<path d="M3317 6373 c-14 -13 -5 -68 24 -138 6 -15 8 -16 8 -4 1 9 8 19 16 23
22 8 19 26 -4 26 -18 0 -19 6 -16 50 3 36 0 50 -9 50 -7 0 -16 -3 -19 -7z"/>
<path d="M10977 5245 c-4 -8 -2 -17 3 -20 6 -4 10 3 10 14 0 25 -6 27 -13 6z"/>
<path d="M10897 4561 c-4 -17 -3 -21 5 -13 5 5 8 16 6 23 -3 8 -7 3 -11 -10z"/>
<path d="M10780 4114 c0 -19 4 -25 15 -20 9 3 15 0 15 -10 0 -8 5 -12 10 -9
13 8 13 65 1 65 -5 0 -12 -6 -14 -12 -4 -10 -6 -10 -6 0 -2 24 -21 11 -21 -14z"/>
<path d="M10856 3923 c-2 -10 -12 -49 -21 -88 -9 -38 -20 -74 -23 -80 -14 -23
15 -151 56 -245 18 -42 76 -110 94 -110 4 0 8 7 8 15 0 21 34 19 81 -6 23 -11
43 -18 46 -15 3 3 -12 13 -33 23 -22 10 -41 20 -44 23 -3 3 -18 12 -34 20 -34
18 -65 93 -65 154 1 23 -4 61 -9 86 -6 25 -14 89 -17 143 -5 70 -11 97 -21 97
-7 0 -15 -8 -18 -17z"/>
<path d="M10530 3055 c0 -17 35 -55 50 -55 14 0 13 7 -6 35 -19 29 -44 40 -44
20z"/>
<path d="M9485 2729 c-27 -16 -54 -30 -59 -32 -5 -1 -2 -27 7 -57 15 -52 15
-54 -10 -103 -21 -42 -23 -51 -10 -58 8 -5 26 -32 41 -61 52 -106 89 -130 67
-44 -6 25 -11 59 -11 76 0 36 38 131 57 143 7 4 13 13 13 19 0 5 26 34 58 64
31 29 51 54 43 54 -8 0 -47 -18 -88 -40 -70 -39 -73 -39 -70 -18 1 13 9 28 18
35 9 7 19 22 22 33 7 28 -16 25 -78 -11z"/>
<path d="M2958 2691 c-26 -3 -57 -14 -68 -23 -22 -19 -27 -48 -8 -48 6 0 8 3
5 7 -4 3 1 12 11 19 23 18 37 17 22 -1 -10 -12 -9 -15 5 -15 11 0 15 -5 11
-15 -3 -8 -1 -15 5 -15 16 0 69 30 69 39 0 4 11 14 25 21 19 10 22 16 14 27
-12 14 -14 14 -91 4z"/>
<path d="M3075 2680 c-4 -6 -4 -14 -1 -17 3 -4 -1 -15 -11 -25 -14 -15 -14
-18 -1 -18 21 0 100 43 102 55 2 14 -81 18 -89 5z"/>
<path d="M2896 2525 c-39 -19 -52 -22 -58 -13 -6 8 -7 -6 -4 -36 6 -56 13 -68
27 -44 5 9 16 24 24 32 8 8 15 19 15 24 0 6 14 22 31 36 38 33 28 33 -35 1z"/>
<path d="M3022 2468 c-7 -7 -12 -16 -12 -21 0 -5 7 -1 16 8 9 9 14 18 12 20
-2 3 -10 -1 -16 -7z"/>
<path d="M2841 2376 c-17 -20 -4 -62 20 -63 15 -1 19 5 19 28 0 16 0 32 1 37
1 14 -28 13 -40 -2z"/>
<path d="M9720 2112 c0 -5 12 -19 28 -33 29 -26 92 -64 92 -55 0 24 -29 57
-66 74 -50 24 -54 26 -54 14z"/>
<path d="M9840 1998 c0 -9 4 -18 8 -20 15 -6 54 -78 42 -78 -6 0 -22 7 -36 16
-41 27 -49 5 -19 -54 34 -68 55 -129 47 -137 -7 -7 107 2 148 12 14 3 66 7
117 7 50 1 95 4 99 9 4 4 18 7 31 7 23 0 31 14 14 25 -5 3 -52 16 -104 29
-116 30 -152 48 -172 86 -12 22 -23 30 -43 30 -29 0 -60 17 -104 58 -22 20
-28 22 -28 10z"/>
<path d="M5023 1675 c-13 -14 -7 -25 14 -25 14 0 18 26 6 33 -5 3 -13 -1 -20
-8z"/>
</g>
</svg>
